<?xml version="1.0" encoding="UTF-8" standalone="no"?>
<!DOCTYPE svg PUBLIC "-//W3C//DTD SVG 1.1//EN" "http://www.w3.org/Graphics/SVG/1.1/DTD/svg11.dtd">
<!-- Generated by Microsoft Visio, SVG Export Transform_ManyToManyReq.svg Page-1 -->
<svg xmlns="http://www.w3.org/2000/svg" xmlns:xlink="http://www.w3.org/1999/xlink" xmlns:ev="http://www.w3.org/2001/xml-events"
		width="5.52848in" height="2.57572in" viewBox="0 0 398.05 185.452" xml:space="preserve" color-interpolation-filters="sRGB"
		class="st14">
	<style type="text/css">
	<![CDATA[
		.st1 {fill:none;stroke:#000000;stroke-linecap:round;stroke-linejoin:round;stroke-width:0.72}
		.st2 {fill:#000000;font-family:Arial;font-size:1.00001em;font-weight:bold}
		.st3 {fill:none;stroke:none;stroke-linecap:round;stroke-linejoin:round;stroke-width:1.2}
		.st4 {fill:#000000;font-family:Arial;font-size:1.00001em}
		.st5 {font-size:1em;text-decoration:underline}
		.st6 {font-size:1em}
		.st7 {fill:none;stroke:#000000;stroke-linecap:round;stroke-linejoin:round;stroke-width:1.2}
		.st8 {marker-end:url(#mrkr28-39);marker-start:url(#mrkr27-37);stroke:#000000;stroke-linecap:round;stroke-linejoin:round;stroke-width:1.2}
		.st9 {fill:#000000;fill-opacity:1;stroke:#000000;stroke-opacity:1;stroke-width:0.23255813953488}
		.st10 {fill:#0000cc;stroke:none;stroke-linecap:round;stroke-linejoin:round;stroke-width:0.24}
		.st11 {fill:none;stroke:none;stroke-linecap:round;stroke-linejoin:round;stroke-width:0.72}
		.st12 {marker-end:url(#mrkr13-80);stroke:#000000;stroke-linecap:round;stroke-linejoin:round;stroke-width:1.2}
		.st13 {fill:#000000;fill-opacity:1;stroke:#000000;stroke-opacity:1;stroke-width:0.32258064516129}
		.st14 {fill:none;fill-rule:evenodd;font-size:12px;overflow:visible;stroke-linecap:square;stroke-miterlimit:3}
	]]>
	</style>

	<defs id="Markers">
		<g id="lend27">
			<path d="M 0 -0.75 L 1.5 0 L 0 0.75 " style="stroke-linecap:round;stroke-linejoin:round;fill:none"/>
		</g>
		<marker id="mrkr27-37" class="st9" orient="auto" markerUnits="strokeWidth" overflow="visible">
			<use xlink:href="#lend27" transform="scale(4.3) "/>
		</marker>
		<g id="lend28">
			<path d="M 0 -0.75 L 1.5 0 L 0 0.75 M 2 -0.75 L 2 0.75 " style="stroke-linecap:round;stroke-linejoin:round;fill:none"/>
		</g>
		<marker id="mrkr28-39" class="st9" orient="auto" markerUnits="strokeWidth" overflow="visible">
			<use xlink:href="#lend28" transform="scale(-4.3,-4.3) "/>
		</marker>
		<g id="lend13">
			<path d="M 3 1 L 0 0 L 3 -1 L 3 1 " style="stroke:none"/>
		</g>
		<marker id="mrkr13-80" class="st13" refX="-9.3" orient="auto" markerUnits="strokeWidth" overflow="visible">
			<use xlink:href="#lend13" transform="scale(-3.1,-3.1) "/>
		</marker>
	</defs>
	<g>
		<title>Page-1</title>
		<g id="group755-1" transform="translate(0.6,-99.8126)">
			<title>Sheet.755</title>
			<g id="shape756-2" transform="translate(1.27898E-013,-42.5197)">
				<title>Sheet.756</title>
				<desc>Student</desc>
				<rect x="0" y="157.106" width="85.0394" height="28.3465" class="st1"/>
				<text x="20.19" y="174.88" class="st2">Student</text>			</g>
			<g id="shape757-5">
				<title>Sheet.757</title>
				<desc>Id Name</desc>
				<rect x="0" y="142.932" width="42.5197" height="42.5197" class="st3"/>
				<text x="4" y="160.59" class="st4"><tspan class="st5">Id</tspan> <tspan x="4" dy="1.2em" class="st6">Name</tspan></text>			</g>
			<g id="shape758-10" transform="translate(42.5197,2.84217E-014)">
				<title>Sheet.758</title>
				<desc>id name</desc>
				<rect x="0" y="142.932" width="42.5197" height="42.5197" class="st3"/>
				<text x="4" y="160.59" class="st4">id <tspan x="4" dy="1.2em" class="st6">name</tspan></text>			</g>
			<g id="shape759-14">
				<title>Sheet.759</title>
				<rect x="0" y="114.586" width="85.0394" height="70.8661" class="st7"/>
			</g>
		</g>
		<g id="group760-16" transform="translate(0.6,-0.6)">
			<title>Sheet.760</title>
			<g id="shape761-17" transform="translate(1.27898E-013,-42.5197)">
				<title>Sheet.761</title>
				<desc>Account</desc>
				<rect x="0" y="157.106" width="85.0394" height="28.3465" class="st1"/>
				<text x="18.52" y="174.88" class="st2">Account</text>			</g>
			<g id="shape762-20">
				<title>Sheet.762</title>
				<desc>Id Name</desc>
				<rect x="0" y="142.932" width="42.5197" height="42.5197" class="st3"/>
				<text x="4" y="160.59" class="st4"><tspan class="st5">Id</tspan> <tspan x="4" dy="1.2em" class="st6">Name</tspan></text>			</g>
			<g id="shape763-25" transform="translate(42.5197,2.84217E-014)">
				<title>Sheet.763</title>
				<desc>id name</desc>
				<rect x="0" y="142.932" width="42.5197" height="42.5197" class="st3"/>
				<text x="4" y="160.59" class="st4">id <tspan x="4" dy="1.2em" class="st6">name</tspan></text>			</g>
			<g id="shape764-29">
				<title>Sheet.764</title>
				<rect x="0" y="114.586" width="85.0394" height="70.8661" class="st7"/>
			</g>
		</g>
		<g id="shape765-31" transform="translate(36.0331,-99.8126)">
			<title>Dynamic connector.564</title>
			<path d="M7.09 185.45 L7.09 213.8" class="st8"/>
		</g>
		<g id="shape766-40" transform="translate(135.931,-76.8506) rotate(0.229182) scale(-1,1)">
			<title>45 degree single.565</title>
			<path d="M0 171.28 L14.17 157.11 L14.17 166.46 L35.43 166.46 L35.43 176.1 L14.17 176.1 L14.17 185.45 L0 171.28 Z"
					class="st10"/>
		</g>
		<g id="group772-42" transform="translate(142.332,-0.6)">
			<title>Sheet.772</title>
			<g id="shape773-43" transform="translate(1.27898E-013,-42.5197)">
				<title>Sheet.773</title>
				<desc>Account</desc>
				<rect x="0" y="157.106" width="85.0394" height="28.3465" class="st1"/>
				<text x="18.52" y="174.88" class="st2">Account</text>			</g>
			<g id="shape774-46">
				<title>Sheet.774</title>
				<desc>Id Name</desc>
				<rect x="0" y="142.932" width="42.5197" height="42.5197" class="st3"/>
				<text x="4" y="160.59" class="st4"><tspan class="st5">Id</tspan> <tspan x="4" dy="1.2em" class="st6">Name</tspan></text>			</g>
			<g id="shape775-51" transform="translate(42.5197,2.84217E-014)">
				<title>Sheet.775</title>
				<desc>id name</desc>
				<rect x="0" y="142.932" width="42.5197" height="42.5197" class="st3"/>
				<text x="4" y="160.59" class="st4">id <tspan x="4" dy="1.2em" class="st6">name</tspan></text>			</g>
			<g id="shape776-55">
				<title>Sheet.776</title>
				<rect x="0" y="114.586" width="85.0394" height="70.8661" class="st7"/>
			</g>
		</g>
		<g id="shape777-57" transform="translate(227.372,-77.6394)">
			<title>Sheet.777</title>
			<desc>«FK1»</desc>
			<rect x="0" y="169.452" width="70.8661" height="16" class="st11"/>
			<text x="17.76" y="181.05" class="st4">«FK1»</text>		</g>
		<g id="group778-60" transform="translate(269.891,-0.6)">
			<title>Sheet.778</title>
			<g id="shape779-61" transform="translate(0,-42.5197)">
				<title>Sheet.779</title>
				<desc>StudentAccount</desc>
				<rect x="0" y="157.106" width="127.559" height="28.3465" class="st1"/>
				<text x="17.45" y="174.88" class="st2">StudentAccount</text>			</g>
			<g id="shape780-64">
				<title>Sheet.780</title>
				<desc>StudentId AccountId</desc>
				<rect x="0" y="142.932" width="70.8661" height="42.5197" class="st3"/>
				<text x="4" y="160.59" class="st4"><tspan class="st5">StudentId</tspan> <tspan x="4" dy="1.2em" class="st5">AccountId</tspan></text>			</g>
			<g id="shape781-69" transform="translate(70.8661,2.84217E-014)">
				<title>Sheet.781</title>
				<desc>id «FK1» id «FK2»</desc>
				<rect x="0" y="142.932" width="56.6929" height="42.5197" class="st3"/>
				<text x="4" y="160.59" class="st4">id «FK1» <tspan x="4" dy="1.2em" class="st6">id </tspan>«FK2»</text>			</g>
			<g id="shape782-73">
				<title>Sheet.782</title>
				<rect x="0" y="114.586" width="127.559" height="70.8661" class="st7"/>
			</g>
		</g>
		<g id="shape783-75" transform="translate(143.932,216.856) rotate(-123.69)">
			<title>Sheet.783</title>
			<path d="M0 185.45 L39.94 185.45" class="st12"/>
		</g>
		<g id="shape784-81" transform="translate(213.198,-35.1197)">
			<title>Sheet.784</title>
			<desc>«FK2»</desc>
			<rect x="0" y="169.452" width="70.8661" height="16" class="st11"/>
			<text x="17.76" y="181.05" class="st4">«FK2»</text>		</g>
		<g id="shape785-84" transform="translate(269.891,334.137) rotate(180)">
			<title>Sheet.785</title>
			<path d="M0 185.45 L31.36 185.45" class="st12"/>
		</g>
		<g id="group787-89" transform="translate(142.332,-99.8126)">
			<title>Sheet.787</title>
			<g id="shape788-90" transform="translate(0,-56.6929)">
				<title>Sheet.788</title>
				<desc>Student</desc>
				<rect x="0" y="157.106" width="127.559" height="28.3465" class="st1"/>
				<text x="41.45" y="174.88" class="st2">Student</text>			</g>
			<g id="shape789-93">
				<title>Sheet.789</title>
				<desc>Id Name AccountId</desc>
				<rect x="0" y="128.759" width="70.8661" height="56.6929" class="st3"/>
				<text x="4" y="146.31" class="st4"><tspan class="st5">Id</tspan> <tspan x="4" dy="1.2em" class="st6">Name </tspan><tspan
							x="4" dy="1.2em" class="st6">AccountId</tspan></text>			</g>
			<g id="shape790-99" transform="translate(70.8661,2.84217E-014)">
				<title>Sheet.790</title>
				<desc>Id «FK» Name Id «FK»</desc>
				<rect x="0" y="128.759" width="56.6929" height="56.6929" class="st3"/>
				<text x="4" y="146.31" class="st4">Id «FK» <tspan x="4" dy="1.2em" class="st6">Name </tspan><tspan x="4" dy="1.2em"
							class="st6">Id </tspan>«FK»</text>			</g>
			<g id="shape791-104">
				<title>Sheet.791</title>
				<rect x="0" y="100.413" width="127.559" height="85.0394" class="st7"/>
			</g>
		</g>
		<g id="shape792-106" transform="translate(424.197,-73.9238) rotate(56.3099)">
			<title>Sheet.792</title>
			<path d="M0 185.45 L91.04 185.45" class="st12"/>
		</g>
		<g id="shape793-111" transform="translate(284.065,-113.986)">
			<title>Sheet.793</title>
			<desc>«FK»</desc>
			<rect x="0" y="169.452" width="70.8661" height="16" class="st11"/>
			<text x="21.09" y="181.05" class="st4">«FK»</text>		</g>
	</g>
</svg>
