<?xml version="1.0" encoding="UTF-8" standalone="no"?>
<!DOCTYPE svg PUBLIC "-//W3C//DTD SVG 1.1//EN" "http://www.w3.org/Graphics/SVG/1.1/DTD/svg11.dtd">
<!-- Generated by Microsoft Visio, SVG Export neighbors.svg Page-1 -->
<svg xmlns="http://www.w3.org/2000/svg" xmlns:xlink="http://www.w3.org/1999/xlink" xmlns:ev="http://www.w3.org/2001/xml-events"
		width="5.23881in" height="2.61295in" viewBox="0 0 377.194 188.132" xml:space="preserve" color-interpolation-filters="sRGB"
		class="st5">
	<style type="text/css">
	<![CDATA[
		.st1 {marker-start:url(#mrkr13-7);stroke:#000000;stroke-linecap:round;stroke-linejoin:round;stroke-width:1.5}
		.st2 {fill:#000000;fill-opacity:1;stroke:#000000;stroke-opacity:1;stroke-width:0.37313432835821}
		.st3 {fill:none;stroke:#000000;stroke-linecap:round;stroke-linejoin:round;stroke-width:1.5}
		.st4 {fill:#000000;font-family:Arial;font-size:1.5em}
		.st5 {fill:none;fill-rule:evenodd;font-size:12px;overflow:visible;stroke-linecap:square;stroke-miterlimit:3}
	]]>
	</style>

	<defs id="Markers">
		<g id="lend13">
			<path d="M 3 1 L 0 0 L 3 -1 L 3 1 " style="stroke:none"/>
		</g>
		<marker id="mrkr13-7" class="st2" refX="7.8" orient="auto" markerUnits="strokeWidth" overflow="visible">
			<use xlink:href="#lend13" transform="scale(2.68) "/>
		</marker>
	</defs>
	<g>
		<title>Page-1</title>
		<g id="group373-1" transform="translate(20.3833,-0.75)">
			<title>Sheet.373</title>
			<g id="shape288-2" transform="translate(153.525,-164.597)">
				<title>Dynamic connector.19</title>
				<path d="M9.73 194.62 L10.03 194.82 L61.45 229.1" class="st1"/>
			</g>
			<g id="shape289-8" transform="translate(130.665,-163.605)">
				<title>Dynamic connector.23</title>
				<path d="M-9.14 195.44 L-9.42 195.67 L-48.73 227.12" class="st1"/>
			</g>
			<g id="shape317-13" transform="translate(2.9976E-014,-2.96327E-007)">
				<title>Sheet.317</title>
				<desc>H</desc>
				<ellipse cx="14.1732" cy="173.959" rx="14.1732" ry="14.1732" class="st3"/>
				<text x="7.67" y="179.36" class="st4">H</text>			</g>
			<g id="shape318-16" transform="translate(31.7033,-46.2225)">
				<title>Dynamic connector.16</title>
				<path d="M-7.56 198.74 L-7.71 199.07 L-11.55 207.33" class="st1"/>
			</g>
			<g id="shape322-21" transform="translate(42.5197,-2.84217E-014)">
				<title>Sheet.322</title>
				<desc>K</desc>
				<ellipse cx="14.1732" cy="173.959" rx="14.1732" ry="14.1732" class="st3"/>
				<text x="8.17" y="179.36" class="st4">K</text>			</g>
			<g id="shape323-24" transform="translate(38.7899,-46.3048)">
				<title>Dynamic connector.17</title>
				<path d="M7.5 198.67 L7.66 199 L11.75 207.5" class="st1"/>
			</g>
			<g id="shape327-29" transform="translate(20.8869,-44.9001)">
				<title>Sheet.327</title>
				<desc>E</desc>
				<ellipse cx="14.1732" cy="173.959" rx="14.1732" ry="14.1732" class="st3"/>
				<text x="8.17" y="179.36" class="st4">E</text>			</g>
			<g id="shape328-32" transform="translate(63.2977,-103.783)">
				<title>Dynamic connector.15</title>
				<path d="M-6.25 198.02 L-6.44 198.33 L-20.67 220.86" class="st1"/>
			</g>
			<g id="shape332-37" transform="translate(99.2126,-44.9001)">
				<title>Sheet.332</title>
				<desc>F</desc>
				<ellipse cx="14.1732" cy="173.959" rx="14.1732" ry="14.1732" class="st3"/>
				<text x="8.68" y="179.36" class="st4">F</text>			</g>
			<g id="shape333-40" transform="translate(79.3701,-104.428)">
				<title>Dynamic connector.18</title>
				<path d="M7.02 197.49 L7.24 197.78 L25.51 222.15" class="st1"/>
			</g>
			<g id="shape337-45" transform="translate(212.598,-44.9001)">
				<title>Sheet.337</title>
				<desc>G</desc>
				<ellipse cx="14.1732" cy="173.959" rx="14.1732" ry="14.1732" class="st3"/>
				<text x="7.17" y="179.36" class="st4">G</text>			</g>
			<g id="shape338-48" transform="translate(219.685,-101.593)">
				<title>Dynamic connector.20</title>
				<path d="M7.09 199.83 L7.09 200.19 L7.09 216.48" class="st1"/>
			</g>
			<g id="shape342-53" transform="translate(212.598,-101.593)">
				<title>Sheet.342</title>
				<desc>D</desc>
				<ellipse cx="14.1732" cy="173.959" rx="14.1732" ry="14.1732" class="st3"/>
				<text x="7.67" y="179.36" class="st4">D</text>			</g>
			<g id="shape346-56" transform="translate(155.906,-101.593)">
				<title>Sheet.346</title>
				<desc>C</desc>
				<ellipse cx="14.1732" cy="173.959" rx="14.1732" ry="14.1732" class="st3"/>
				<text x="7.67" y="179.36" class="st4">C</text>			</g>
			<g id="shape347-59" transform="translate(148.071,-159.782)">
				<title>Dynamic connector</title>
				<path d="M5.23 198.6 L5.39 198.92 L15.67 219.47" class="st1"/>
			</g>
			<g id="shape351-64" transform="translate(127.559,-158.286)">
				<title>Sheet.351</title>
				<desc>A</desc>
				<ellipse cx="14.1732" cy="173.959" rx="14.1732" ry="14.1732" class="st3"/>
				<text x="8.17" y="179.36" class="st4">A</text>			</g>
			<g id="shape355-67" transform="translate(56.6929,-101.593)">
				<title>Sheet.355</title>
				<desc>B</desc>
				<ellipse cx="14.1732" cy="173.959" rx="14.1732" ry="14.1732" class="st3"/>
				<text x="8.17" y="179.36" class="st4">B</text>			</g>
			<g id="shape365-70" transform="translate(297.638,-101.593)">
				<title>Sheet.365</title>
				<desc>I</desc>
				<ellipse cx="14.1732" cy="173.959" rx="14.1732" ry="14.1732" class="st3"/>
				<text x="11.67" y="179.36" class="st4">I</text>			</g>
			<g id="shape366-73" transform="translate(304.724,-158.286)">
				<title>Dynamic connector.366</title>
				<path d="M7.09 199.83 L7.09 200.19 L7.09 216.48" class="st1"/>
			</g>
			<g id="shape370-78" transform="translate(297.638,-158.286)">
				<title>Sheet.370</title>
				<desc>H</desc>
				<ellipse cx="14.1732" cy="173.959" rx="14.1732" ry="14.1732" class="st3"/>
				<text x="7.67" y="179.36" class="st4">H</text>			</g>
		</g>
	</g>
</svg>
