<?xml version="1.0" encoding="UTF-8" standalone="no"?>
<!DOCTYPE svg PUBLIC "-//W3C//DTD SVG 1.1//EN" "http://www.w3.org/Graphics/SVG/1.1/DTD/svg11.dtd">
<!-- Generated by Microsoft Visio, SVG Export nested-sets.svg Page-1 -->
<svg xmlns="http://www.w3.org/2000/svg" xmlns:xlink="http://www.w3.org/1999/xlink" xmlns:ev="http://www.w3.org/2001/xml-events"
		width="5.74811in" height="4.14927in" viewBox="0 0 413.864 298.748" xml:space="preserve" color-interpolation-filters="sRGB"
		class="st6">
	<style type="text/css">
	<![CDATA[
		.st1 {fill:none;stroke:none;stroke-linecap:round;stroke-linejoin:round;stroke-width:0.72}
		.st2 {fill:#0000aa;font-family:Arial;font-size:1.00001em;font-weight:bold}
		.st3 {stroke:#000000;stroke-linecap:round;stroke-linejoin:round;stroke-width:1.5}
		.st4 {fill:none;stroke:#000000;stroke-linecap:round;stroke-linejoin:round;stroke-width:1.5}
		.st5 {fill:#000000;font-family:Arial;font-size:1.5em}
		.st6 {fill:none;fill-rule:evenodd;font-size:12px;overflow:visible;stroke-linecap:square;stroke-miterlimit:3}
	]]>
	</style>

	<g>
		<title>Page-1</title>
		<g id="group198-1" transform="translate(0.36,-0.75)">
			<title>Sheet.198</title>
			<g id="shape52-2" transform="translate(-1.39888E-014,-85.0394)">
				<title>Sheet.52</title>
				<desc>0</desc>
				<rect x="0" y="284.575" width="28.3465" height="14.1732" class="st1"/>
				<text x="10.84" y="295.26" class="st2">0</text>			</g>
			<g id="shape19-5" transform="translate(271.672,-220.46)">
				<title>Dynamic connector.19</title>
				<path d="M0 298.75 L-61.45 257.78" class="st3"/>
			</g>
			<g id="shape23-8" transform="translate(187.358,-260.437)">
				<title>Dynamic connector.23</title>
				<path d="M0 298.75 L-48.73 337.73" class="st3"/>
			</g>
			<g id="shape51-11" transform="translate(14.1732,-85.0394)">
				<title>Sheet.51</title>
				<path d="M0 298.75 L311.81 298.75" class="st3"/>
			</g>
			<g id="shape53-14" transform="translate(311.811,-85.0394)">
				<title>Sheet.53</title>
				<desc>17</desc>
				<rect x="0" y="284.575" width="28.3465" height="14.1732" class="st1"/>
				<text x="4" y="295.26" class="st2">17</text>			</g>
			<g id="shape54-17" transform="translate(28.3465,-56.6929)">
				<title>Sheet.54</title>
				<path d="M0 298.75 L170.08 298.75" class="st3"/>
			</g>
			<g id="shape55-20" transform="translate(42.5197,-28.3465)">
				<title>Sheet.55</title>
				<path d="M0 298.75 L99.21 298.75" class="st3"/>
			</g>
			<g id="shape56-23" transform="translate(56.6929,0)">
				<title>Sheet.56</title>
				<path d="M0 298.75 L28.35 298.75" class="st3"/>
			</g>
			<g id="shape57-26" transform="translate(42.5197,0)">
				<title>Sheet.57</title>
				<desc>3</desc>
				<rect x="0" y="284.575" width="28.3465" height="14.1732" class="st1"/>
				<text x="10.84" y="295.26" class="st2">3</text>			</g>
			<g id="shape58-29" transform="translate(70.8661,-2.84217E-013)">
				<title>Sheet.58</title>
				<desc>4</desc>
				<rect x="0" y="284.575" width="28.3465" height="14.1732" class="st1"/>
				<text x="10.84" y="295.26" class="st2">4</text>			</g>
			<g id="shape59-32" transform="translate(99.2126,0)">
				<title>Sheet.59</title>
				<path d="M0 298.75 L28.35 298.75" class="st3"/>
			</g>
			<g id="shape60-35" transform="translate(85.0394,0)">
				<title>Sheet.60</title>
				<desc>5</desc>
				<rect x="0" y="284.575" width="28.3465" height="14.1732" class="st1"/>
				<text x="10.84" y="295.26" class="st2">5</text>			</g>
			<g id="shape61-38" transform="translate(113.386,-2.84217E-013)">
				<title>Sheet.61</title>
				<desc>6</desc>
				<rect x="0" y="284.575" width="28.3465" height="14.1732" class="st1"/>
				<text x="10.84" y="295.26" class="st2">6</text>			</g>
			<g id="shape62-41" transform="translate(28.3465,-28.3465)">
				<title>Sheet.62</title>
				<desc>2</desc>
				<rect x="0" y="284.575" width="28.3465" height="14.1732" class="st1"/>
				<text x="10.84" y="295.26" class="st2">2</text>			</g>
			<g id="shape64-44" transform="translate(14.1732,-56.6929)">
				<title>Sheet.64</title>
				<desc>1</desc>
				<rect x="0" y="284.575" width="28.3465" height="14.1732" class="st1"/>
				<text x="10.84" y="295.26" class="st2">1</text>			</g>
			<g id="shape65-47" transform="translate(127.559,-28.3465)">
				<title>Sheet.65</title>
				<desc>7</desc>
				<rect x="0" y="284.575" width="28.3465" height="14.1732" class="st1"/>
				<text x="10.84" y="295.26" class="st2">7</text>			</g>
			<g id="shape66-50" transform="translate(155.906,-28.3465)">
				<title>Sheet.66</title>
				<path d="M0 298.75 L28.35 298.75" class="st3"/>
			</g>
			<g id="shape67-53" transform="translate(141.732,-28.3465)">
				<title>Sheet.67</title>
				<desc>8</desc>
				<rect x="0" y="284.575" width="28.3465" height="14.1732" class="st1"/>
				<text x="10.84" y="295.26" class="st2">8</text>			</g>
			<g id="shape68-56" transform="translate(170.079,-28.3465)">
				<title>Sheet.68</title>
				<desc>9</desc>
				<rect x="0" y="284.575" width="28.3465" height="14.1732" class="st1"/>
				<text x="10.84" y="295.26" class="st2">9</text>			</g>
			<g id="shape69-59" transform="translate(184.252,-56.6929)">
				<title>Sheet.69</title>
				<desc>10</desc>
				<rect x="0" y="284.575" width="28.3465" height="14.1732" class="st1"/>
				<text x="4" y="295.26" class="st2">10</text>			</g>
			<g id="shape70-62" transform="translate(212.598,-56.6929)">
				<title>Sheet.70</title>
				<path d="M0 298.75 L28.35 298.75" class="st3"/>
			</g>
			<g id="shape71-65" transform="translate(198.425,-56.6929)">
				<title>Sheet.71</title>
				<desc>11</desc>
				<rect x="0" y="284.575" width="28.3465" height="14.1732" class="st1"/>
				<text x="11" y="295.26" class="st2">11</text>			</g>
			<g id="shape72-68" transform="translate(226.772,-56.6929)">
				<title>Sheet.72</title>
				<desc>12</desc>
				<rect x="0" y="284.575" width="28.3465" height="14.1732" class="st1"/>
				<text x="4" y="295.26" class="st2">12</text>			</g>
			<g id="shape73-71" transform="translate(255.118,-56.6929)">
				<title>Sheet.73</title>
				<path d="M0 298.75 L56.69 298.75" class="st3"/>
			</g>
			<g id="shape74-74" transform="translate(240.945,-56.6929)">
				<title>Sheet.74</title>
				<desc>13</desc>
				<rect x="0" y="284.575" width="28.3465" height="14.1732" class="st1"/>
				<text x="11" y="295.26" class="st2">13</text>			</g>
			<g id="shape75-77" transform="translate(297.638,-56.6929)">
				<title>Sheet.75</title>
				<desc>16</desc>
				<rect x="0" y="284.575" width="28.3465" height="14.1732" class="st1"/>
				<text x="7.5" y="295.26" class="st2">16</text>			</g>
			<g id="shape76-80" transform="translate(269.291,-28.3465)">
				<title>Sheet.76</title>
				<path d="M0 298.75 L28.35 298.75" class="st3"/>
			</g>
			<g id="shape77-83" transform="translate(255.118,-28.3465)">
				<title>Sheet.77</title>
				<desc>14</desc>
				<rect x="0" y="284.575" width="28.3465" height="14.1732" class="st1"/>
				<text x="7.5" y="295.26" class="st2">14</text>			</g>
			<g id="shape78-86" transform="translate(283.465,-28.3465)">
				<title>Sheet.78</title>
				<desc>15</desc>
				<rect x="0" y="284.575" width="28.3465" height="14.1732" class="st1"/>
				<text x="7.5" y="295.26" class="st2">15</text>			</g>
			<g id="group85-89" transform="translate(42.5197,-96.8322)">
				<title>Sheet.85</title>
				<g id="shape8-90" transform="translate(14.1732,1.13687E-013)">
					<title>Sheet.8</title>
					<desc>H</desc>
					<ellipse cx="14.1732" cy="284.575" rx="14.1732" ry="14.1732" class="st4"/>
					<text x="7.67" y="289.97" class="st5">H</text>				</g>
				<g id="shape16-93" transform="translate(45.8765,-46.2225)">
					<title>Dynamic connector.16</title>
					<path d="M-2.62 298.75 L-11.55 317.95" class="st3"/>
				</g>
				<g id="shape33-96" transform="translate(0,-28.3465)">
					<title>Sheet.33</title>
					<desc>3</desc>
					<rect x="0" y="284.575" width="28.3465" height="14.1732" class="st1"/>
					<text x="17.67" y="295.26" class="st2">3</text>				</g>
				<g id="shape34-99" transform="translate(28.3465,-28.3465)">
					<title>Sheet.34</title>
					<desc>4</desc>
					<rect x="0" y="284.575" width="28.3465" height="14.1732" class="st1"/>
					<text x="4" y="295.26" class="st2">4</text>				</g>
			</g>
			<g id="group86-102" transform="translate(85.0394,-96.8322)">
				<title>Sheet.86</title>
				<g id="shape9-103" transform="translate(14.1732,5.68434E-014)">
					<title>Sheet.9</title>
					<desc>K</desc>
					<ellipse cx="14.1732" cy="284.575" rx="14.1732" ry="14.1732" class="st4"/>
					<text x="8.17" y="289.97" class="st5">K</text>				</g>
				<g id="shape17-106" transform="translate(10.4434,-46.3048)">
					<title>Dynamic connector.17</title>
					<path d="M2.42 298.75 L11.75 318.11" class="st3"/>
				</g>
				<g id="shape35-109" transform="translate(0,-28.3465)">
					<title>Sheet.35</title>
					<desc>5</desc>
					<rect x="0" y="284.575" width="28.3465" height="14.1732" class="st1"/>
					<text x="17.67" y="295.26" class="st2">5</text>				</g>
				<g id="shape36-112" transform="translate(28.3465,-28.3465)">
					<title>Sheet.36</title>
					<desc>6</desc>
					<rect x="0" y="284.575" width="28.3465" height="14.1732" class="st1"/>
					<text x="4" y="295.26" class="st2">6</text>				</g>
			</g>
			<g id="group87-115" transform="translate(63.4065,-141.732)">
				<title>Sheet.87</title>
				<g id="shape5-116" transform="translate(14.1732,5.68434E-014)">
					<title>Sheet.5</title>
					<desc>E</desc>
					<ellipse cx="14.1732" cy="284.575" rx="14.1732" ry="14.1732" class="st4"/>
					<text x="8.17" y="289.97" class="st5">E</text>				</g>
				<g id="shape15-119" transform="translate(56.5841,-58.8828)">
					<title>Dynamic connector.15</title>
					<path d="M0 298.75 L-20.67 331.47" class="st3"/>
				</g>
				<g id="shape30-122" transform="translate(7.99361E-015,-28.3465)">
					<title>Sheet.30</title>
					<desc>2</desc>
					<rect x="0" y="284.575" width="28.3465" height="14.1732" class="st1"/>
					<text x="17.67" y="295.26" class="st2">2</text>				</g>
				<g id="shape37-125" transform="translate(28.3465,-28.3465)">
					<title>Sheet.37</title>
					<desc>7</desc>
					<rect x="0" y="284.575" width="28.3465" height="14.1732" class="st1"/>
					<text x="4" y="295.26" class="st2">7</text>				</g>
			</g>
			<g id="group88-128" transform="translate(141.732,-141.732)">
				<title>Sheet.88</title>
				<g id="shape6-129" transform="translate(14.1732,1.13687E-013)">
					<title>Sheet.6</title>
					<desc>F</desc>
					<ellipse cx="14.1732" cy="284.575" rx="14.1732" ry="14.1732" class="st4"/>
					<text x="8.68" y="289.97" class="st5">F</text>				</g>
				<g id="shape18-132" transform="translate(19.8425,-25.5118)">
					<title>Dynamic connector.18</title>
					<path d="M0 298.75 L-25.51 264.73" class="st3"/>
				</g>
				<g id="shape41-135" transform="translate(7.99361E-015,-28.3465)">
					<title>Sheet.41</title>
					<desc>8</desc>
					<rect x="0" y="284.575" width="28.3465" height="14.1732" class="st1"/>
					<text x="17.67" y="295.26" class="st2">8</text>				</g>
				<g id="shape42-138" transform="translate(28.3465,-28.3465)">
					<title>Sheet.42</title>
					<desc>9</desc>
					<rect x="0" y="284.575" width="28.3465" height="14.1732" class="st1"/>
					<text x="4" y="295.26" class="st2">9</text>				</g>
			</g>
			<g id="group89-141" transform="translate(255.118,-141.732)">
				<title>Sheet.89</title>
				<g id="shape7-142" transform="translate(14.1732,1.13687E-013)">
					<title>Sheet.7</title>
					<desc>G</desc>
					<ellipse cx="14.1732" cy="284.575" rx="14.1732" ry="14.1732" class="st4"/>
					<text x="7.17" y="289.97" class="st5">G</text>				</g>
				<g id="shape20-145" transform="translate(35.4331,-28.3465)">
					<title>Dynamic connector.20</title>
					<path d="M-7.09 298.75 L-7.09 270.4" class="st3"/>
				</g>
				<g id="shape48-148" transform="translate(0,-28.3465)">
					<title>Sheet.48</title>
					<desc>14</desc>
					<rect x="0" y="284.575" width="28.3465" height="14.1732" class="st1"/>
					<text x="11" y="295.26" class="st2">14</text>				</g>
				<g id="shape49-151" transform="translate(28.3465,-28.3465)">
					<title>Sheet.49</title>
					<desc>15</desc>
					<rect x="0" y="284.575" width="28.3465" height="14.1732" class="st1"/>
					<text x="4" y="295.26" class="st2">15</text>				</g>
			</g>
			<g id="group90-154" transform="translate(255.118,-198.425)">
				<title>Sheet.90</title>
				<g id="shape4-155" transform="translate(14.1732,5.68434E-014)">
					<title>Sheet.4</title>
					<desc>D</desc>
					<ellipse cx="14.1732" cy="284.575" rx="14.1732" ry="14.1732" class="st4"/>
					<text x="7.67" y="289.97" class="st5">D</text>				</g>
				<g id="shape46-158" transform="translate(0,-28.3465)">
					<title>Sheet.46</title>
					<desc>13</desc>
					<rect x="0" y="284.575" width="28.3465" height="14.1732" class="st1"/>
					<text x="11" y="295.26" class="st2">13</text>				</g>
				<g id="shape47-161" transform="translate(28.3465,-28.3465)">
					<title>Sheet.47</title>
					<desc>16</desc>
					<rect x="0" y="284.575" width="28.3465" height="14.1732" class="st1"/>
					<text x="4" y="295.26" class="st2">16</text>				</g>
			</g>
			<g id="group91-164" transform="translate(198.425,-198.425)">
				<title>Sheet.91</title>
				<g id="shape3-165" transform="translate(14.1732,5.68434E-014)">
					<title>Sheet.3</title>
					<desc>C</desc>
					<ellipse cx="14.1732" cy="284.575" rx="14.1732" ry="14.1732" class="st4"/>
					<text x="7.67" y="289.97" class="st5">C</text>				</g>
				<g id="shape14-168" transform="translate(6.33846,-58.1892)">
					<title>Dynamic connector</title>
					<path d="M0 298.75 L15.67 330.09" class="st3"/>
				</g>
				<g id="shape44-171" transform="translate(0,-28.3465)">
					<title>Sheet.44</title>
					<desc>11</desc>
					<rect x="0" y="284.575" width="28.3465" height="14.1732" class="st1"/>
					<text x="11" y="295.26" class="st2">11</text>				</g>
				<g id="shape45-174" transform="translate(28.3465,-28.3465)">
					<title>Sheet.45</title>
					<desc>12</desc>
					<rect x="0" y="284.575" width="28.3465" height="14.1732" class="st1"/>
					<text x="4" y="295.26" class="st2">12</text>				</g>
			</g>
			<g id="group92-177" transform="translate(170.079,-255.118)">
				<title>Sheet.92</title>
				<g id="shape1-178" transform="translate(14.1732,0)">
					<title>Sheet.1</title>
					<desc>A</desc>
					<ellipse cx="14.1732" cy="284.575" rx="14.1732" ry="14.1732" class="st4"/>
					<text x="8.17" y="289.97" class="st5">A</text>				</g>
				<g id="shape26-181" transform="translate(-3.59712E-014,-28.3465)">
					<title>Sheet.26</title>
					<desc>0</desc>
					<rect x="0" y="284.575" width="28.3465" height="14.1732" class="st1"/>
					<text x="17.67" y="295.26" class="st2">0</text>				</g>
				<g id="shape50-184" transform="translate(28.3465,-28.3465)">
					<title>Sheet.50</title>
					<desc>17</desc>
					<rect x="0" y="284.575" width="28.3465" height="14.1732" class="st1"/>
					<text x="4" y="295.26" class="st2">17</text>				</g>
			</g>
			<g id="group93-187" transform="translate(99.2126,-198.425)">
				<title>Sheet.93</title>
				<g id="shape2-188" transform="translate(14.1732,0)">
					<title>Sheet.2</title>
					<desc>B</desc>
					<ellipse cx="14.1732" cy="284.575" rx="14.1732" ry="14.1732" class="st4"/>
					<text x="8.17" y="289.97" class="st5">B</text>				</g>
				<g id="shape27-191" transform="translate(0,-28.3465)">
					<title>Sheet.27</title>
					<desc>1</desc>
					<rect x="0" y="284.575" width="28.3465" height="14.1732" class="st1"/>
					<text x="17.67" y="295.26" class="st2">1</text>				</g>
				<g id="shape43-194" transform="translate(28.3465,-28.3465)">
					<title>Sheet.43</title>
					<desc>10</desc>
					<rect x="0" y="284.575" width="28.3465" height="14.1732" class="st1"/>
					<text x="4" y="295.26" class="st2">10</text>				</g>
			</g>
			<g id="shape95-197" transform="translate(340.157,-85.0394)">
				<title>Sheet.95</title>
				<path d="M0 298.75 L56.69 298.75" class="st3"/>
			</g>
			<g id="shape96-200" transform="translate(325.984,-85.0394)">
				<title>Sheet.96</title>
				<desc>18</desc>
				<rect x="0" y="284.575" width="28.3465" height="14.1732" class="st1"/>
				<text x="11" y="295.26" class="st2">18</text>			</g>
			<g id="shape97-203" transform="translate(382.677,-85.0394)">
				<title>Sheet.97</title>
				<desc>21</desc>
				<rect x="0" y="284.575" width="28.3465" height="14.1732" class="st1"/>
				<text x="4" y="295.26" class="st2">21</text>			</g>
			<g id="shape98-206" transform="translate(354.331,-56.6929)">
				<title>Sheet.98</title>
				<path d="M0 298.75 L28.35 298.75" class="st3"/>
			</g>
			<g id="shape99-209" transform="translate(340.157,-56.6929)">
				<title>Sheet.99</title>
				<desc>19</desc>
				<rect x="0" y="284.575" width="28.3465" height="14.1732" class="st1"/>
				<text x="7.5" y="295.26" class="st2">19</text>			</g>
			<g id="shape100-212" transform="translate(368.504,-56.6929)">
				<title>Sheet.100</title>
				<desc>20</desc>
				<rect x="0" y="284.575" width="28.3465" height="14.1732" class="st1"/>
				<text x="7.5" y="295.26" class="st2">20</text>			</g>
			<g id="group101-215" transform="translate(340.157,-198.425)">
				<title>Sheet.101</title>
				<g id="shape102-216" transform="translate(14.1732,1.13687E-013)">
					<title>Sheet.102</title>
					<desc>I</desc>
					<ellipse cx="14.1732" cy="284.575" rx="14.1732" ry="14.1732" class="st4"/>
					<text x="11.67" y="289.97" class="st5">I</text>				</g>
				<g id="shape103-219" transform="translate(35.4331,-28.3465)">
					<title>Dynamic connector.20</title>
					<path d="M-7.09 298.75 L-7.09 270.4" class="st3"/>
				</g>
				<g id="shape104-222" transform="translate(0,-28.3465)">
					<title>Sheet.104</title>
					<desc>19</desc>
					<rect x="0" y="284.575" width="28.3465" height="14.1732" class="st1"/>
					<text x="11" y="295.26" class="st2">19</text>				</g>
				<g id="shape105-225" transform="translate(28.3465,-28.3465)">
					<title>Sheet.105</title>
					<desc>20</desc>
					<rect x="0" y="284.575" width="28.3465" height="14.1732" class="st1"/>
					<text x="4" y="295.26" class="st2">20</text>				</g>
			</g>
			<g id="group106-228" transform="translate(340.157,-255.118)">
				<title>Sheet.106</title>
				<g id="shape107-229" transform="translate(14.1732,5.68434E-014)">
					<title>Sheet.107</title>
					<desc>H</desc>
					<ellipse cx="14.1732" cy="284.575" rx="14.1732" ry="14.1732" class="st4"/>
					<text x="7.67" y="289.97" class="st5">H</text>				</g>
				<g id="shape108-232" transform="translate(0,-28.3465)">
					<title>Sheet.108</title>
					<desc>18</desc>
					<rect x="0" y="284.575" width="28.3465" height="14.1732" class="st1"/>
					<text x="11" y="295.26" class="st2">18</text>				</g>
				<g id="shape109-235" transform="translate(28.3465,-28.3465)">
					<title>Sheet.109</title>
					<desc>21</desc>
					<rect x="0" y="284.575" width="28.3465" height="14.1732" class="st1"/>
					<text x="4" y="295.26" class="st2">21</text>				</g>
			</g>
		</g>
	</g>
</svg>
