<?xml version="1.0" encoding="UTF-8" standalone="no"?>
<!DOCTYPE svg PUBLIC "-//W3C//DTD SVG 1.1//EN" "http://www.w3.org/Graphics/SVG/1.1/DTD/svg11.dtd">
<!-- Generated by Microsoft Visio, SVG Export paths.svg Page-1 -->
<svg xmlns="http://www.w3.org/2000/svg" xmlns:xlink="http://www.w3.org/1999/xlink" xmlns:ev="http://www.w3.org/2001/xml-events"
		width="5.23881in" height="3.06118in" viewBox="0 0 377.194 220.405" xml:space="preserve" color-interpolation-filters="sRGB"
		class="st7">
	<style type="text/css">
	<![CDATA[
		.st1 {marker-start:url(#mrkr13-7);stroke:#000000;stroke-linecap:round;stroke-linejoin:round;stroke-width:1.5}
		.st2 {fill:#000000;fill-opacity:1;stroke:#000000;stroke-opacity:1;stroke-width:0.37313432835821}
		.st3 {fill:none;stroke:#000000;stroke-linecap:round;stroke-linejoin:round;stroke-width:1.5}
		.st4 {fill:#000000;font-family:Arial;font-size:1.5em}
		.st5 {fill:none;stroke:none;stroke-linecap:round;stroke-linejoin:round;stroke-width:0.72}
		.st6 {fill:#0000aa;font-family:Arial;font-size:1.00001em;font-weight:bold}
		.st7 {fill:none;fill-rule:evenodd;font-size:12px;overflow:visible;stroke-linecap:square;stroke-miterlimit:3}
	]]>
	</style>

	<defs id="Markers">
		<g id="lend13">
			<path d="M 3 1 L 0 0 L 3 -1 L 3 1 " style="stroke:none"/>
		</g>
		<marker id="mrkr13-7" class="st2" refX="7.8" orient="auto" markerUnits="strokeWidth" overflow="visible">
			<use xlink:href="#lend13" transform="scale(2.68) "/>
		</marker>
	</defs>
	<g>
		<title>Page-1</title>
		<g id="group406-1" transform="translate(6.21011,-0.36)">
			<title>Sheet.406</title>
			<g id="shape288-2" transform="translate(167.698,-183.477)">
				<title>Dynamic connector.288</title>
				<path d="M9.73 226.9 L10.03 227.09 L61.45 261.37" class="st1"/>
			</g>
			<g id="shape289-8" transform="translate(144.838,-182.485)">
				<title>Dynamic connector.289</title>
				<path d="M-9.14 227.71 L-9.42 227.94 L-48.73 259.39" class="st1"/>
			</g>
			<g id="shape317-13" transform="translate(14.1732,-18.8795)">
				<title>Sheet.317</title>
				<desc>H</desc>
				<ellipse cx="14.1732" cy="206.232" rx="14.1732" ry="14.1732" class="st3"/>
				<text x="7.67" y="211.63" class="st4">H</text>			</g>
			<g id="shape318-16" transform="translate(45.8765,-65.1019)">
				<title>Dynamic connector.318</title>
				<path d="M-7.56 231.01 L-7.71 231.34 L-11.55 239.6" class="st1"/>
			</g>
			<g id="shape322-21" transform="translate(56.6929,-18.8795)">
				<title>Sheet.322</title>
				<desc>K</desc>
				<ellipse cx="14.1732" cy="206.232" rx="14.1732" ry="14.1732" class="st3"/>
				<text x="8.17" y="211.63" class="st4">K</text>			</g>
			<g id="shape323-24" transform="translate(52.9631,-65.1842)">
				<title>Dynamic connector.323</title>
				<path d="M7.5 230.95 L7.66 231.27 L11.75 239.77" class="st1"/>
			</g>
			<g id="shape327-29" transform="translate(35.0601,-63.7795)">
				<title>Sheet.327</title>
				<desc>E</desc>
				<ellipse cx="14.1732" cy="206.232" rx="14.1732" ry="14.1732" class="st3"/>
				<text x="8.17" y="211.63" class="st4">E</text>			</g>
			<g id="shape328-32" transform="translate(77.471,-122.662)">
				<title>Dynamic connector.328</title>
				<path d="M-6.25 230.3 L-6.44 230.6 L-20.67 253.13" class="st1"/>
			</g>
			<g id="shape332-37" transform="translate(113.386,-63.7795)">
				<title>Sheet.332</title>
				<desc>F</desc>
				<ellipse cx="14.1732" cy="206.232" rx="14.1732" ry="14.1732" class="st3"/>
				<text x="8.68" y="211.63" class="st4">F</text>			</g>
			<g id="shape333-40" transform="translate(93.5433,-123.307)">
				<title>Dynamic connector.333</title>
				<path d="M7.02 229.77 L7.24 230.05 L25.51 254.42" class="st1"/>
			</g>
			<g id="shape337-45" transform="translate(226.772,-63.7795)">
				<title>Sheet.337</title>
				<desc>G</desc>
				<ellipse cx="14.1732" cy="206.232" rx="14.1732" ry="14.1732" class="st3"/>
				<text x="7.17" y="211.63" class="st4">G</text>			</g>
			<g id="shape338-48" transform="translate(233.858,-120.472)">
				<title>Dynamic connector.338</title>
				<path d="M7.09 232.11 L7.09 232.47 L7.09 248.75" class="st1"/>
			</g>
			<g id="shape342-53" transform="translate(226.772,-120.472)">
				<title>Sheet.342</title>
				<desc>D</desc>
				<ellipse cx="14.1732" cy="206.232" rx="14.1732" ry="14.1732" class="st3"/>
				<text x="7.67" y="211.63" class="st4">D</text>			</g>
			<g id="shape346-56" transform="translate(170.079,-120.472)">
				<title>Sheet.346</title>
				<desc>C</desc>
				<ellipse cx="14.1732" cy="206.232" rx="14.1732" ry="14.1732" class="st3"/>
				<text x="7.67" y="211.63" class="st4">C</text>			</g>
			<g id="shape347-59" transform="translate(162.244,-178.662)">
				<title>Dynamic connector.347</title>
				<path d="M5.23 230.87 L5.39 231.19 L15.67 251.74" class="st1"/>
			</g>
			<g id="shape351-64" transform="translate(141.732,-177.165)">
				<title>Sheet.351</title>
				<desc>A</desc>
				<ellipse cx="14.1732" cy="206.232" rx="14.1732" ry="14.1732" class="st3"/>
				<text x="8.17" y="211.63" class="st4">A</text>			</g>
			<g id="shape355-67" transform="translate(70.8661,-120.472)">
				<title>Sheet.355</title>
				<desc>B</desc>
				<ellipse cx="14.1732" cy="206.232" rx="14.1732" ry="14.1732" class="st3"/>
				<text x="8.17" y="211.63" class="st4">B</text>			</g>
			<g id="shape365-70" transform="translate(311.811,-120.472)">
				<title>Sheet.365</title>
				<desc>I</desc>
				<ellipse cx="14.1732" cy="206.232" rx="14.1732" ry="14.1732" class="st3"/>
				<text x="11.67" y="211.63" class="st4">I</text>			</g>
			<g id="shape366-73" transform="translate(318.898,-177.165)">
				<title>Dynamic connector.366</title>
				<path d="M7.09 232.11 L7.09 232.47 L7.09 248.75" class="st1"/>
			</g>
			<g id="shape370-78" transform="translate(311.811,-177.165)">
				<title>Sheet.370</title>
				<desc>H</desc>
				<ellipse cx="14.1732" cy="206.232" rx="14.1732" ry="14.1732" class="st3"/>
				<text x="7.67" y="211.63" class="st4">H</text>			</g>
			<g id="shape395-81" transform="translate(141.732,-205.512)">
				<title>Sheet.395</title>
				<desc>1</desc>
				<rect x="0" y="206.232" width="28.3465" height="14.1732" class="st5"/>
				<text x="10.84" y="216.92" class="st6">1</text>			</g>
			<g id="shape396-84" transform="translate(70.8661,-148.819)">
				<title>Sheet.396</title>
				<desc>1.1</desc>
				<rect x="0" y="206.232" width="28.3465" height="14.1732" class="st5"/>
				<text x="5.83" y="216.92" class="st6">1.1</text>			</g>
			<g id="shape397-87" transform="translate(28.3465,-92.126)">
				<title>Sheet.397</title>
				<desc>1.1.1</desc>
				<rect x="0" y="206.232" width="42.5197" height="14.1732" class="st5"/>
				<text x="7.91" y="216.92" class="st6">1.1.1</text>			</g>
			<g id="shape398-90">
				<title>Sheet.398</title>
				<desc>1.1.1.1</desc>
				<rect x="0" y="206.232" width="49.6063" height="14.1732" class="st5"/>
				<text x="6.45" y="216.92" class="st6">1.1.1.1</text>			</g>
			<g id="shape399-93" transform="translate(49.6063,0)">
				<title>Sheet.399</title>
				<desc>1.1.1.2</desc>
				<rect x="0" y="206.232" width="49.6063" height="14.1732" class="st5"/>
				<text x="6.45" y="216.92" class="st6">1.1.1.2</text>			</g>
			<g id="shape400-96" transform="translate(106.299,-49.6063)">
				<title>Sheet.400</title>
				<desc>1.1.2</desc>
				<rect x="0" y="206.232" width="42.5197" height="14.1732" class="st5"/>
				<text x="7.91" y="216.92" class="st6">1.1.2</text>			</g>
			<g id="shape401-99" transform="translate(141.732,-148.819)">
				<title>Sheet.401</title>
				<desc>1.2</desc>
				<rect x="0" y="206.232" width="42.5197" height="14.1732" class="st5"/>
				<text x="12.92" y="216.92" class="st6">1.2</text>			</g>
			<g id="shape402-102" transform="translate(219.685,-148.819)">
				<title>Sheet.402</title>
				<desc>1.3</desc>
				<rect x="0" y="206.232" width="42.5197" height="14.1732" class="st5"/>
				<text x="12.92" y="216.92" class="st6">1.3</text>			</g>
			<g id="shape403-105" transform="translate(219.685,-49.6063)">
				<title>Sheet.403</title>
				<desc>1.3.1</desc>
				<rect x="0" y="206.232" width="42.5197" height="14.1732" class="st5"/>
				<text x="7.91" y="216.92" class="st6">1.3.1</text>			</g>
			<g id="shape404-108" transform="translate(311.811,-205.512)">
				<title>Sheet.404</title>
				<desc>2</desc>
				<rect x="0" y="206.232" width="28.3465" height="14.1732" class="st5"/>
				<text x="10.84" y="216.92" class="st6">2</text>			</g>
			<g id="shape405-111" transform="translate(311.811,-106.299)">
				<title>Sheet.405</title>
				<desc>2.2</desc>
				<rect x="0" y="206.232" width="28.3465" height="14.1732" class="st5"/>
				<text x="5.83" y="216.92" class="st6">2.2</text>			</g>
		</g>
	</g>
</svg>
