<?xml version="1.0" encoding="UTF-8" standalone="no"?>
<!DOCTYPE svg PUBLIC "-//W3C//DTD SVG 1.1//EN" "http://www.w3.org/Graphics/SVG/1.1/DTD/svg11.dtd">
<!-- Generated by Microsoft Visio, SVG Export tree.svg Page-1 -->
<svg xmlns="http://www.w3.org/2000/svg" xmlns:xlink="http://www.w3.org/1999/xlink" xmlns:ev="http://www.w3.org/2001/xml-events"
		width="5.23881in" height="2.61295in" viewBox="0 0 377.194 188.132" xml:space="preserve" color-interpolation-filters="sRGB"
		class="st4">
	<style type="text/css">
	<![CDATA[
		.st1 {stroke:#000000;stroke-linecap:round;stroke-linejoin:round;stroke-width:1.5}
		.st2 {fill:none;stroke:#000000;stroke-linecap:round;stroke-linejoin:round;stroke-width:1.5}
		.st3 {fill:#000000;font-family:Arial;font-size:1.5em}
		.st4 {fill:none;fill-rule:evenodd;font-size:12px;overflow:visible;stroke-linecap:square;stroke-miterlimit:3}
	]]>
	</style>

	<g>
		<title>Page-1</title>
		<g id="shape449-1" transform="translate(173.908,-165.347)">
			<title>Dynamic connector.19</title>
			<path d="M0 188.13 L61.45 229.1" class="st1"/>
		</g>
		<g id="shape450-4" transform="translate(151.048,-164.355)">
			<title>Dynamic connector.23</title>
			<path d="M0 188.13 L-48.73 227.12" class="st1"/>
		</g>
		<g id="shape451-7" transform="translate(20.3833,-0.75)">
			<title>Sheet.451</title>
			<desc>H</desc>
			<ellipse cx="14.1732" cy="173.959" rx="14.1732" ry="14.1732" class="st2"/>
			<text x="7.67" y="179.36" class="st3">H</text>		</g>
		<g id="shape452-10" transform="translate(52.0866,-46.9725)">
			<title>Dynamic connector.16</title>
			<path d="M-2.62 188.13 L-11.55 207.33" class="st1"/>
		</g>
		<g id="shape453-13" transform="translate(62.903,-0.75)">
			<title>Sheet.453</title>
			<desc>K</desc>
			<ellipse cx="14.1732" cy="173.959" rx="14.1732" ry="14.1732" class="st2"/>
			<text x="8.17" y="179.36" class="st3">K</text>		</g>
		<g id="shape454-16" transform="translate(59.1732,-47.0548)">
			<title>Dynamic connector.17</title>
			<path d="M2.42 188.13 L11.75 207.5" class="st1"/>
		</g>
		<g id="shape455-19" transform="translate(41.2702,-45.6501)">
			<title>Sheet.455</title>
			<desc>E</desc>
			<ellipse cx="14.1732" cy="173.959" rx="14.1732" ry="14.1732" class="st2"/>
			<text x="8.17" y="179.36" class="st3">E</text>		</g>
		<g id="shape456-22" transform="translate(83.6811,-104.533)">
			<title>Dynamic connector.15</title>
			<path d="M0 188.13 L-20.67 220.86" class="st1"/>
		</g>
		<g id="shape457-25" transform="translate(119.596,-45.6501)">
			<title>Sheet.457</title>
			<desc>F</desc>
			<ellipse cx="14.1732" cy="173.959" rx="14.1732" ry="14.1732" class="st2"/>
			<text x="8.68" y="179.36" class="st3">F</text>		</g>
		<g id="shape458-28" transform="translate(99.7534,-105.178)">
			<title>Dynamic connector.18</title>
			<path d="M0 188.13 L25.51 222.15" class="st1"/>
		</g>
		<g id="shape459-31" transform="translate(232.982,-45.6501)">
			<title>Sheet.459</title>
			<desc>G</desc>
			<ellipse cx="14.1732" cy="173.959" rx="14.1732" ry="14.1732" class="st2"/>
			<text x="7.17" y="179.36" class="st3">G</text>		</g>
		<g id="shape460-34" transform="translate(240.068,-102.343)">
			<title>Dynamic connector.20</title>
			<path d="M7.09 188.13 L7.09 216.48" class="st1"/>
		</g>
		<g id="shape461-37" transform="translate(232.982,-102.343)">
			<title>Sheet.461</title>
			<desc>D</desc>
			<ellipse cx="14.1732" cy="173.959" rx="14.1732" ry="14.1732" class="st2"/>
			<text x="7.67" y="179.36" class="st3">D</text>		</g>
		<g id="shape462-40" transform="translate(176.289,-102.343)">
			<title>Sheet.462</title>
			<desc>C</desc>
			<ellipse cx="14.1732" cy="173.959" rx="14.1732" ry="14.1732" class="st2"/>
			<text x="7.67" y="179.36" class="st3">C</text>		</g>
		<g id="shape463-43" transform="translate(168.454,-160.532)">
			<title>Dynamic connector</title>
			<path d="M0 188.13 L15.67 219.47" class="st1"/>
		</g>
		<g id="shape464-46" transform="translate(147.942,-159.036)">
			<title>Sheet.464</title>
			<desc>A</desc>
			<ellipse cx="14.1732" cy="173.959" rx="14.1732" ry="14.1732" class="st2"/>
			<text x="8.17" y="179.36" class="st3">A</text>		</g>
		<g id="shape465-49" transform="translate(77.0763,-102.343)">
			<title>Sheet.465</title>
			<desc>B</desc>
			<ellipse cx="14.1732" cy="173.959" rx="14.1732" ry="14.1732" class="st2"/>
			<text x="8.17" y="179.36" class="st3">B</text>		</g>
		<g id="shape466-52" transform="translate(318.021,-102.343)">
			<title>Sheet.466</title>
			<desc>I</desc>
			<ellipse cx="14.1732" cy="173.959" rx="14.1732" ry="14.1732" class="st2"/>
			<text x="11.67" y="179.36" class="st3">I</text>		</g>
		<g id="shape467-55" transform="translate(325.108,-159.036)">
			<title>Dynamic connector.366</title>
			<path d="M7.09 188.13 L7.09 216.48" class="st1"/>
		</g>
		<g id="shape468-58" transform="translate(318.021,-159.036)">
			<title>Sheet.468</title>
			<desc>H</desc>
			<ellipse cx="14.1732" cy="173.959" rx="14.1732" ry="14.1732" class="st2"/>
			<text x="7.67" y="179.36" class="st3">H</text>		</g>
	</g>
</svg>
