<?xml version="1.0" encoding="UTF-8" standalone="no"?>
<!DOCTYPE svg PUBLIC "-//W3C//DTD SVG 1.1//EN" "http://www.w3.org/Graphics/SVG/1.1/DTD/svg11.dtd">
<!-- Generated by Microsoft Visio, SVG Export events.svg Page-1 -->
<svg xmlns="http://www.w3.org/2000/svg" xmlns:xlink="http://www.w3.org/1999/xlink" xmlns:ev="http://www.w3.org/2001/xml-events"
		xmlns:v="http://schemas.microsoft.com/visio/2003/SVGExtensions/" width="4.53756in" height="1.3924in"
		viewBox="0 0 326.704 100.253" xml:space="preserve" color-interpolation-filters="sRGB" class="st11">
	<v:documentProperties v:langID="1033" v:metric="true" v:viewMarkup="false">
		<v:userDefs>
			<v:ud v:nameU="msvConvertTheme"/>
		</v:userDefs>
	</v:documentProperties>

	<style type="text/css">
	<![CDATA[
		.st1 {stroke:#0000aa;stroke-linecap:round;stroke-linejoin:round;stroke-width:1.5}
		.st2 {fill:none}
		.st3 {stroke:none;stroke-linecap:round;stroke-linejoin:round;stroke-width:1.5}
		.st4 {stroke:#000000;stroke-linecap:round;stroke-linejoin:round;stroke-width:1.5}
		.st5 {fill:none;stroke:none;stroke-linecap:round;stroke-linejoin:round;stroke-width:1.5;visibility:hidden}
		.st6 {fill:#000000;font-family:Arial;font-size:1.99999em}
		.st7 {baseline-shift:-32.4951%;font-size:0.649901em}
		.st8 {fill:none;stroke:none;stroke-linecap:round;stroke-linejoin:round;stroke-width:0.72}
		.st9 {fill:#0000aa;font-family:Arial;font-size:1.5em}
		.st10 {baseline-shift:-32.4951%;font-size:0.649902em}
		.st11 {fill:none;fill-rule:evenodd;font-size:12px;overflow:visible;stroke-linecap:square;stroke-miterlimit:3}
	]]>
	</style>

	<g v:mID="0" v:index="1" v:groupContext="foregroundPage">
		<title>Page-1</title>
		<v:pageProperties v:drawingScale="0.0393701" v:pageScale="0.0393701" v:drawingUnits="24" v:shadowOffsetX="8.50394"
				v:shadowOffsetY="-8.50394"/>
		<g id="shape178-1" v:mID="178" v:groupContext="shape" transform="translate(199.825,43.1997) rotate(90)">
			<title>Sheet.178</title>
			<path d="M0 100.25 L28.35 100.25" class="st1"/>
		</g>
		<g id="shape186-4" v:mID="186" v:groupContext="shape" transform="translate(327.384,43.1997) rotate(90)">
			<title>Sheet.186</title>
			<path d="M0 100.25 L28.35 100.25" class="st1"/>
		</g>
		<g id="shape190-7" v:mID="190" v:groupContext="shape" transform="translate(114.786,43.1997) rotate(90)">
			<title>Sheet.190</title>
			<path d="M0 100.25 L28.35 100.25" class="st1"/>
		</g>
		<g id="group170-10" transform="translate(14.5332,-42.8797)" v:mID="170" v:groupContext="group">
			<v:userDefs>
				<v:ud v:nameU="visVersion" v:val="VT0(15):26"/>
			</v:userDefs>
			<title>2-D single.170</title>
			<desc>v1</desc>
			<g id="shape171-11" v:mID="171" v:groupContext="shape">
				<title>Sheet.171</title>
				<path d="M0 93.17 L77.95 93.17 L77.95 100.25 L85.04 86.08 L77.95 71.91 L77.95 78.99 L0 78.99 L0 93.17 Z"
						class="st2"/>
				<path d="M0 93.17 L77.95 93.17 L77.95 100.25 L85.04 86.08 L77.95 71.91 L77.95 78.99 L0 78.99" class="st3"/>
			</g>
			<g id="shape172-14" v:mID="172" v:groupContext="shape">
				<title>Sheet.172</title>
				<path d="M0 93.17 L77.95 93.17 L77.95 100.25 L85.04 86.08 L77.95 71.91 L77.95 78.99 L0 78.99 L0 93.17" class="st4"/>
			</g>
			<g id="shape173-17" v:mID="173" v:groupContext="shape" transform="translate(-3.27165,-8.58661)">
				<title>Sheet.173</title>
				<rect x="0" y="89.0793" width="3" height="11.1732" class="st5"/>
			</g>
			<g id="shape170-19" v:mID="170" v:groupContext="groupContent">
				<v:textBlock v:margins="rect(4,4,4,4)" v:tabSpace="42.5197"/>
				<v:textRect cx="42.5197" cy="86.0793" width="85.04" height="28.3465"/>
				<text x="32.18" y="64.48" class="st6" v:langID="1033"><v:paragraph v:horizAlign="1"/><v:tabList/>v<tspan
							dy="-0.287em" class="st7" v:baseFontSize="24">1</tspan><v:newlineChar/><v:newlineChar/></text>			</g>
		</g>
		<g id="group174-22" transform="translate(99.5726,-42.8797)" v:mID="174" v:groupContext="group">
			<v:userDefs>
				<v:ud v:nameU="visVersion" v:val="VT0(15):26"/>
			</v:userDefs>
			<title>2-D single.174</title>
			<desc>v2</desc>
			<g id="shape175-23" v:mID="175" v:groupContext="shape">
				<title>Sheet.175</title>
				<path d="M0 93.17 L120.47 93.17 L120.47 100.25 L127.56 86.08 L120.47 71.91 L120.47 78.99 L0 78.99 L0 93.17 Z"
						class="st2"/>
				<path d="M0 93.17 L120.47 93.17 L120.47 100.25 L127.56 86.08 L120.47 71.91 L120.47 78.99 L0 78.99" class="st3"/>
			</g>
			<g id="shape176-26" v:mID="176" v:groupContext="shape">
				<title>Sheet.176</title>
				<path d="M0 93.17 L120.47 93.17 L120.47 100.25 L127.56 86.08 L120.47 71.91 L120.47 78.99 L0 78.99 L0 93.17"
						class="st4"/>
			</g>
			<g id="shape177-29" v:mID="177" v:groupContext="shape" transform="translate(-4.15748,-8.58661)">
				<title>Sheet.177</title>
				<rect x="0" y="89.0793" width="3" height="11.1732" class="st5"/>
			</g>
			<g id="shape174-31" v:mID="174" v:groupContext="groupContent">
				<v:textBlock v:margins="rect(4,4,4,4)" v:tabSpace="42.5197"/>
				<v:textRect cx="63.7795" cy="86.0793" width="127.56" height="28.3465"/>
				<text x="53.44" y="64.48" class="st6" v:langID="1033"><v:paragraph v:horizAlign="1"/><v:tabList/>v<tspan
							dy="-0.287em" class="st7" v:baseFontSize="24">2</tspan><v:newlineChar/><v:newlineChar/></text>			</g>
		</g>
		<g id="group182-34" transform="translate(227.132,-42.8797)" v:mID="182" v:groupContext="group">
			<v:userDefs>
				<v:ud v:nameU="visVersion" v:val="VT0(15):26"/>
			</v:userDefs>
			<title>2-D single.182</title>
			<desc>v3</desc>
			<g id="shape183-35" v:mID="183" v:groupContext="shape">
				<title>Sheet.183</title>
				<path d="M0 93.17 L77.95 93.17 L77.95 100.25 L85.04 86.08 L77.95 71.91 L77.95 78.99 L0 78.99 L0 93.17 Z"
						class="st2"/>
				<path d="M0 93.17 L77.95 93.17 L77.95 100.25 L85.04 86.08 L77.95 71.91 L77.95 78.99 L0 78.99" class="st3"/>
			</g>
			<g id="shape184-38" v:mID="184" v:groupContext="shape">
				<title>Sheet.184</title>
				<path d="M0 93.17 L77.95 93.17 L77.95 100.25 L85.04 86.08 L77.95 71.91 L77.95 78.99 L0 78.99 L0 93.17" class="st4"/>
			</g>
			<g id="shape185-41" v:mID="185" v:groupContext="shape" transform="translate(-3.27165,-8.58661)">
				<title>Sheet.185</title>
				<rect x="0" y="89.0793" width="3" height="11.1732" class="st5"/>
			</g>
			<g id="shape182-43" v:mID="182" v:groupContext="groupContent">
				<v:textBlock v:margins="rect(4,4,4,4)" v:tabSpace="42.5197"/>
				<v:textRect cx="42.5197" cy="86.0793" width="85.04" height="28.3465"/>
				<text x="32.18" y="64.48" class="st6" v:langID="1033"><v:paragraph v:horizAlign="1"/><v:tabList/>v<tspan
							dy="-0.287em" class="st7" v:baseFontSize="24">3</tspan><v:newlineChar/><v:newlineChar/></text>			</g>
		</g>
		<g id="shape192-46" v:mID="192" v:groupContext="shape" transform="translate(0.36,-0.36)">
			<title>Sheet.192</title>
			<desc>t1</desc>
			<v:textBlock v:margins="rect(4,4,4,4)" v:tabSpace="42.5197"/>
			<v:textRect cx="14.1732" cy="86.0793" width="28.35" height="28.3465"/>
			<rect x="0" y="71.9061" width="28.3465" height="28.3465" class="st8"/>
			<text x="8.42" y="91.48" class="st9" v:langID="1033"><v:paragraph v:horizAlign="1"/><v:tabList/>t<tspan dy="-0.287em"
						class="st10" v:baseFontSize="18">1</tspan></text>		</g>
		<g id="shape194-50" v:mID="194" v:groupContext="shape" transform="translate(85.3994,-0.36)">
			<title>Sheet.194</title>
			<desc>t2</desc>
			<v:textBlock v:margins="rect(4,4,4,4)" v:tabSpace="42.5197"/>
			<v:textRect cx="14.1732" cy="86.0793" width="28.35" height="28.3465"/>
			<rect x="0" y="71.9061" width="28.3465" height="28.3465" class="st8"/>
			<text x="8.42" y="91.48" class="st9" v:langID="1033"><v:paragraph v:horizAlign="1"/><v:tabList/>t<tspan dy="-0.287em"
						class="st10" v:baseFontSize="18">2</tspan></text>		</g>
		<g id="shape195-54" v:mID="195" v:groupContext="shape" transform="translate(212.958,-0.36)">
			<title>Sheet.195</title>
			<desc>t3</desc>
			<v:textBlock v:margins="rect(4,4,4,4)" v:tabSpace="42.5197"/>
			<v:textRect cx="14.1732" cy="86.0793" width="28.35" height="28.3465"/>
			<rect x="0" y="71.9061" width="28.3465" height="28.3465" class="st8"/>
			<text x="8.42" y="91.48" class="st9" v:langID="1033"><v:paragraph v:horizAlign="1"/><v:tabList/>t<tspan dy="-0.287em"
						class="st10" v:baseFontSize="18">3</tspan></text>		</g>
		<g id="shape203-58" v:mID="203" v:groupContext="shape" transform="translate(297.998,-0.36)">
			<title>Sheet.203</title>
			<desc>t4</desc>
			<v:textBlock v:margins="rect(4,4,4,4)" v:tabSpace="42.5197"/>
			<v:textRect cx="14.1732" cy="86.0793" width="28.35" height="28.3465"/>
			<rect x="0" y="71.9061" width="28.3465" height="28.3465" class="st8"/>
			<text x="8.42" y="91.48" class="st9" v:langID="1033"><v:paragraph v:horizAlign="1"/><v:tabList/>t<tspan dy="-0.287em"
						class="st10" v:baseFontSize="18">4</tspan></text>		</g>
		<g id="shape204-62" v:mID="204" v:groupContext="shape" transform="translate(412.424,43.1997) rotate(90)">
			<title>Sheet.204</title>
			<path d="M0 100.25 L28.35 100.25" class="st1"/>
		</g>
	</g>
</svg>
