<?xml version="1.0" encoding="UTF-8" standalone="no"?>
<!DOCTYPE svg PUBLIC "-//W3C//DTD SVG 1.1//EN" "http://www.w3.org/Graphics/SVG/1.1/DTD/svg11.dtd">
<!-- Generated by Microsoft Visio, SVG Export intervals-update-1.svg Page-1 -->
<svg xmlns="http://www.w3.org/2000/svg" xmlns:xlink="http://www.w3.org/1999/xlink" xmlns:ev="http://www.w3.org/2001/xml-events"
		width="4.97712in" height="1.89415in" viewBox="0 0 358.352 136.379" xml:space="preserve" color-interpolation-filters="sRGB"
		class="st10">
	<style type="text/css">
	<![CDATA[
		.st1 {fill:none}
		.st2 {stroke:none;stroke-linecap:round;stroke-linejoin:round;stroke-width:1.5}
		.st3 {stroke:#000000;stroke-linecap:round;stroke-linejoin:round;stroke-width:1.5}
		.st4 {fill:none;stroke:none;stroke-linecap:round;stroke-linejoin:round;stroke-width:1.5;visibility:hidden}
		.st5 {fill:#000000;font-family:Arial;font-size:1.99999em}
		.st6 {baseline-shift:-32.4951%;font-family:Calibri;font-size:0.649901em}
		.st7 {fill:#0000aa}
		.st8 {stroke:#0000aa;stroke-linecap:round;stroke-linejoin:round;stroke-width:1.5}
		.st9 {fill:#0000aa;stroke:#0000aa;stroke-linecap:round;stroke-linejoin:round;stroke-width:1.5;visibility:hidden}
		.st10 {fill:none;fill-rule:evenodd;font-size:12px;overflow:visible;stroke-linecap:square;stroke-miterlimit:3}
	]]>
	</style>

	<g>
		<title>Page-1</title>
		<g id="group49-1" transform="translate(3.27165,-78.2599)">
			<title>2-D single.49</title>
			<desc>v1</desc>
			<g id="shape50-2">
				<title>Sheet.50</title>
				<path d="M0 129.29 L77.95 129.29 L77.95 136.38 L85.04 122.21 L77.95 108.03 L77.95 115.12 L0 115.12 L0 129.29 Z"
						class="st1"/>
				<path d="M0 129.29 L77.95 129.29 L77.95 136.38 L85.04 122.21 L77.95 108.03 L77.95 115.12 L0 115.12" class="st2"/>
			</g>
			<g id="shape51-5">
				<title>Sheet.51</title>
				<path d="M0 129.29 L77.95 129.29 L77.95 136.38 L85.04 122.21 L77.95 108.03 L77.95 115.12 L0 115.12 L0 129.29"
						class="st3"/>
			</g>
			<g id="shape52-8" transform="translate(-3.27165,-8.58661)">
				<title>Sheet.52</title>
				<rect x="0" y="125.206" width="3" height="11.1732" class="st4"/>
			</g>
			<g id="shape49-10">
				<text x="32.57" y="100.79" class="st5">v<tspan dy="-0.284em" class="st6">1</tspan></text>			</g>
		</g>
		<g id="group53-13" transform="translate(88.311,-78.2599)">
			<title>2-D single.53</title>
			<desc>v2</desc>
			<g id="shape54-14">
				<title>Sheet.54</title>
				<path d="M0 129.29 L120.47 129.29 L120.47 136.38 L127.56 122.21 L120.47 108.03 L120.47 115.12 L0 115.12 L0 129.29
							 Z" class="st1"/>
				<path d="M0 129.29 L120.47 129.29 L120.47 136.38 L127.56 122.21 L120.47 108.03 L120.47 115.12 L0 115.12"
						class="st2"/>
			</g>
			<g id="shape55-17">
				<title>Sheet.55</title>
				<path d="M0 129.29 L120.47 129.29 L120.47 136.38 L127.56 122.21 L120.47 108.03 L120.47 115.12 L0 115.12 L0 129.29"
						class="st3"/>
			</g>
			<g id="shape56-20" transform="translate(-4.15748,-8.58661)">
				<title>Sheet.56</title>
				<rect x="0" y="125.206" width="3" height="11.1732" class="st4"/>
			</g>
			<g id="shape53-22">
				<text x="53.83" y="100.79" class="st5">v<tspan dy="-0.284em" class="st6">2</tspan></text>			</g>
		</g>
		<g id="group64-25" transform="translate(272.563,-79.0059)">
			<title>2-D single.64</title>
			<desc>v3</desc>
			<g id="shape65-26">
				<title>Sheet.65</title>
				<path d="M0 129.29 L77.95 129.29 L77.95 136.38 L85.04 122.21 L77.95 108.03 L77.95 115.12 L0 115.12 L0 129.29 Z"
						class="st1"/>
				<path d="M0 129.29 L77.95 129.29 L77.95 136.38 L85.04 122.21 L77.95 108.03 L77.95 115.12 L0 115.12" class="st2"/>
			</g>
			<g id="shape66-29">
				<title>Sheet.66</title>
				<path d="M0 129.29 L77.95 129.29 L77.95 136.38 L85.04 122.21 L77.95 108.03 L77.95 115.12 L0 115.12 L0 129.29"
						class="st3"/>
			</g>
			<g id="shape67-32" transform="translate(-3.27165,-8.58661)">
				<title>Sheet.67</title>
				<rect x="0" y="125.206" width="3" height="11.1732" class="st4"/>
			</g>
			<g id="shape64-34">
				<text x="32.57" y="100.79" class="st5">v<tspan dy="-0.284em" class="st6">3</tspan></text>			</g>
		</g>
		<g id="group72-37" transform="translate(215.87,-78.2599)">
			<title>2-D single.72</title>
			<desc>v3</desc>
			<g id="shape73-38">
				<title>Sheet.73</title>
				<path d="M0 129.29 L49.61 129.29 L49.61 136.38 L56.69 122.21 L49.61 108.03 L49.61 115.12 L0 115.12 L0 129.29 Z"
						class="st1"/>
				<path d="M0 129.29 L49.61 129.29 L49.61 136.38 L56.69 122.21 L49.61 108.03 L49.61 115.12 L0 115.12" class="st2"/>
			</g>
			<g id="shape74-41">
				<title>Sheet.74</title>
				<path d="M0 129.29 L49.61 129.29 L49.61 136.38 L56.69 122.21 L49.61 108.03 L49.61 115.12 L0 115.12 L0 129.29"
						class="st3"/>
			</g>
			<g id="shape75-44" transform="translate(-2.6811,-8.58661)">
				<title>Sheet.75</title>
				<rect x="0" y="125.206" width="3" height="11.1732" class="st4"/>
			</g>
			<g id="shape72-46">
				<text x="18.39" y="100.79" class="st5">v<tspan dy="-0.284em" class="st6">3</tspan></text>			</g>
		</g>
		<g id="group84-49" transform="translate(59.9646,-29.0266)">
			<title>2-D single.84</title>
			<desc>vn</desc>
			<g id="shape85-50">
				<title>Sheet.85</title>
				<path d="M0 129.29 L233.86 129.29 L233.86 136.38 L240.94 122.21 L233.86 108.03 L233.86 115.12 L0 115.12 L0 129.29
							 Z" class="st7"/>
				<path d="M0 129.29 L233.86 129.29 L233.86 136.38 L240.94 122.21 L233.86 108.03 L233.86 115.12 L0 115.12"
						class="st2"/>
			</g>
			<g id="shape86-53">
				<title>Sheet.86</title>
				<path d="M0 129.29 L233.86 129.29 L233.86 136.38 L240.94 122.21 L233.86 108.03 L233.86 115.12 L0 115.12 L0 129.29"
						class="st8"/>
			</g>
			<g id="shape87-56" transform="translate(-6.51969,-8.58661)">
				<title>Sheet.87</title>
				<rect x="0" y="125.206" width="3" height="11.1732" class="st9"/>
			</g>
			<g id="shape84-58">
				<text x="110.37" y="100.79" class="st5">v<tspan dy="-0.284em" class="st6">n</tspan></text>			</g>
		</g>
		<g id="group112-61" transform="translate(3.27165,-29.0266)">
			<title>2-D single.112</title>
			<desc>v1</desc>
			<g id="shape113-62">
				<title>Sheet.113</title>
				<path d="M0 129.29 L49.61 129.29 L49.61 136.38 L56.69 122.21 L49.61 108.03 L49.61 115.12 L0 115.12 L0 129.29 Z"
						class="st1"/>
				<path d="M0 129.29 L49.61 129.29 L49.61 136.38 L56.69 122.21 L49.61 108.03 L49.61 115.12 L0 115.12" class="st2"/>
			</g>
			<g id="shape114-65">
				<title>Sheet.114</title>
				<path d="M0 129.29 L49.61 129.29 L49.61 136.38 L56.69 122.21 L49.61 108.03 L49.61 115.12 L0 115.12 L0 129.29"
						class="st3"/>
			</g>
			<g id="shape115-68" transform="translate(-2.6811,-8.58661)">
				<title>Sheet.115</title>
				<rect x="0" y="125.206" width="3" height="11.1732" class="st4"/>
			</g>
			<g id="shape112-70">
				<text x="18.39" y="100.79" class="st5">v<tspan dy="-0.284em" class="st6">1</tspan></text>			</g>
		</g>
		<g id="group116-73" transform="translate(300.909,-29.0266)">
			<title>2-D single.116</title>
			<desc>v3</desc>
			<g id="shape117-74">
				<title>Sheet.117</title>
				<path d="M0 129.29 L49.61 129.29 L49.61 136.38 L56.69 122.21 L49.61 108.03 L49.61 115.12 L0 115.12 L0 129.29 Z"
						class="st1"/>
				<path d="M0 129.29 L49.61 129.29 L49.61 136.38 L56.69 122.21 L49.61 108.03 L49.61 115.12 L0 115.12" class="st2"/>
			</g>
			<g id="shape118-77">
				<title>Sheet.118</title>
				<path d="M0 129.29 L49.61 129.29 L49.61 136.38 L56.69 122.21 L49.61 108.03 L49.61 115.12 L0 115.12 L0 129.29"
						class="st3"/>
			</g>
			<g id="shape119-80" transform="translate(-2.6811,-8.58661)">
				<title>Sheet.119</title>
				<rect x="0" y="125.206" width="3" height="11.1732" class="st4"/>
			</g>
			<g id="shape116-82">
				<text x="18.39" y="100.79" class="st5">v<tspan dy="-0.284em" class="st6">3</tspan></text>			</g>
		</g>
	</g>
</svg>
