<?xml version="1.0" encoding="UTF-8" standalone="no"?>
<!DOCTYPE svg PUBLIC "-//W3C//DTD SVG 1.1//EN" "http://www.w3.org/Graphics/SVG/1.1/DTD/svg11.dtd">
<!-- Generated by Microsoft Visio, SVG Export intervals-update-2-modified.svg Page-1 -->
<svg xmlns="http://www.w3.org/2000/svg" xmlns:xlink="http://www.w3.org/1999/xlink" xmlns:ev="http://www.w3.org/2001/xml-events"
		width="5.05504in" height="2.08582in" viewBox="0 0 363.963 150.179" xml:space="preserve" color-interpolation-filters="sRGB"
		class="st12">
	<style type="text/css">
	<![CDATA[
		.st1 {fill:none}
		.st2 {stroke:none;stroke-linecap:round;stroke-linejoin:round;stroke-width:1.5}
		.st3 {stroke:#000000;stroke-linecap:round;stroke-linejoin:round;stroke-width:1.5}
		.st4 {fill:none;stroke:none;stroke-linecap:round;stroke-linejoin:round;stroke-width:1.5;visibility:hidden}
		.st5 {fill:#000000;font-family:Arial;font-size:1.99999em}
		.st6 {baseline-shift:-32.4951%;font-family:Calibri;font-size:0.649901em}
		.st7 {fill:#0000aa}
		.st8 {stroke:#0000aa;stroke-linecap:round;stroke-linejoin:round;stroke-width:1.5}
		.st9 {fill:#0000aa;stroke:#0000aa;stroke-linecap:round;stroke-linejoin:round;stroke-width:1.5;visibility:hidden}
		.st10 {fill:#ffffff}
		.st11 {fill:#ffffff;stroke:none;stroke-linecap:round;stroke-linejoin:round;stroke-width:1.5;visibility:hidden}
		.st12 {fill:none;fill-rule:evenodd;font-size:12px;overflow:visible;stroke-linecap:square;stroke-miterlimit:3}
	]]>
	</style>

	<g>
		<title>Page-1</title>
		<g id="group148-1" transform="translate(8.88189,-78.6329)">
			<title>2-D single.148</title>
			<desc>v1</desc>
			<g id="shape149-2">
				<title>Sheet.149</title>
				<path d="M0 143.09 L347.24 143.09 L347.24 150.18 L354.33 136.01 L347.24 121.83 L347.24 128.92 L0 128.92 L0 143.09
							 Z" class="st1"/>
				<path d="M0 143.09 L347.24 143.09 L347.24 150.18 L354.33 136.01 L347.24 121.83 L347.24 128.92 L0 128.92"
						class="st2"/>
			</g>
			<g id="shape150-5">
				<title>Sheet.150</title>
				<path d="M0 143.09 L347.24 143.09 L347.24 150.18 L354.33 136.01 L347.24 121.83 L347.24 128.92 L0 128.92 L0 143.09"
						class="st3"/>
			</g>
			<g id="shape151-8" transform="translate(-8.88189,-8.58661)">
				<title>Sheet.151</title>
				<rect x="0" y="139.006" width="3" height="11.1732" class="st4"/>
			</g>
			<g id="shape148-10">
				<text x="167.21" y="114.59" class="st5">v<tspan dy="-0.284em" class="st6">1</tspan></text>			</g>
		</g>
		<g id="group152-13" transform="translate(65.5748,-29.0266)">
			<title>2-D single.152</title>
			<desc>vn</desc>
			<g id="shape153-14">
				<title>Sheet.153</title>
				<path d="M0 143.09 L233.86 143.09 L233.86 150.18 L240.94 136.01 L233.86 121.83 L233.86 128.92 L0 128.92 L0 143.09
							 Z" class="st7"/>
				<path d="M0 143.09 L233.86 143.09 L233.86 150.18 L240.94 136.01 L233.86 121.83 L233.86 128.92 L0 128.92"
						class="st2"/>
			</g>
			<g id="shape154-17">
				<title>Sheet.154</title>
				<path d="M0 143.09 L233.86 143.09 L233.86 150.18 L240.94 136.01 L233.86 121.83 L233.86 128.92 L0 128.92 L0 143.09"
						class="st8"/>
			</g>
			<g id="shape155-20" transform="translate(-6.51969,-8.58661)">
				<title>Sheet.155</title>
				<rect x="0" y="139.006" width="3" height="11.1732" class="st9"/>
			</g>
			<g id="shape152-22">
				<text x="110.37" y="114.59" class="st5">v<tspan dy="-0.284em" class="st6">n</tspan></text>			</g>
		</g>
		<g id="group156-25" transform="translate(8.88189,-29.0266)">
			<title>2-D single.156</title>
			<desc>v1</desc>
			<g id="shape157-26">
				<title>Sheet.157</title>
				<path d="M0 143.09 L49.61 143.09 L49.61 150.18 L56.69 136.01 L49.61 121.83 L49.61 128.92 L0 128.92 L0 143.09 Z"
						class="st1"/>
				<path d="M0 143.09 L49.61 143.09 L49.61 150.18 L56.69 136.01 L49.61 121.83 L49.61 128.92 L0 128.92" class="st2"/>
			</g>
			<g id="shape158-29">
				<title>Sheet.158</title>
				<path d="M0 143.09 L49.61 143.09 L49.61 150.18 L56.69 136.01 L49.61 121.83 L49.61 128.92 L0 128.92 L0 143.09"
						class="st3"/>
			</g>
			<g id="shape159-32" transform="translate(-2.6811,-8.58661)">
				<title>Sheet.159</title>
				<rect x="0" y="139.006" width="3" height="11.1732" class="st4"/>
			</g>
			<g id="shape156-34">
				<text x="18.39" y="114.59" class="st5">v<tspan dy="-0.284em" class="st6">1</tspan></text>			</g>
		</g>
		<g id="group160-37" transform="translate(306.52,-29.0266)">
			<title>2-D single.160</title>
			<desc>v1</desc>
			<g id="shape161-38">
				<title>Sheet.161</title>
				<path d="M0 143.09 L49.61 143.09 L49.61 150.18 L56.69 136.01 L49.61 121.83 L49.61 128.92 L0 128.92 L0 143.09 Z"
						class="st1"/>
				<path d="M0 143.09 L49.61 143.09 L49.61 150.18 L56.69 136.01 L49.61 121.83 L49.61 128.92 L0 128.92" class="st2"/>
			</g>
			<g id="shape162-41">
				<title>Sheet.162</title>
				<path d="M0 143.09 L49.61 143.09 L49.61 150.18 L56.69 136.01 L49.61 121.83 L49.61 128.92 L0 128.92 L0 143.09"
						class="st3"/>
			</g>
			<g id="shape163-44" transform="translate(-2.6811,-8.58661)">
				<title>Sheet.163</title>
				<rect x="0" y="139.006" width="3" height="11.1732" class="st4"/>
			</g>
			<g id="shape160-46">
				<text x="18.39" y="114.59" class="st5">v<tspan dy="-0.284em" class="st6">1</tspan></text>			</g>
		</g>
		<g id="group164-49" transform="translate(306.52,-92.8061)">
			<title>2-D single.164</title>
			<desc>v1</desc>
			<g id="shape165-50">
				<title>Sheet.165</title>
				<path d="M0 143.09 L49.61 143.09 L49.61 150.18 L56.69 136.01 L49.61 121.83 L49.61 128.92 L0 128.92 L0 143.09 Z"
						class="st10"/>
				<path d="M0 143.09 L49.61 143.09 L49.61 150.18 L56.69 136.01 L49.61 121.83 L49.61 128.92 L0 128.92" class="st2"/>
			</g>
			<g id="shape166-53">
				<title>Sheet.166</title>
				<path d="M0 143.09 L49.61 143.09 L49.61 150.18 L56.69 136.01 L49.61 121.83 L49.61 128.92 L0 128.92 L0 143.09"
						class="st3"/>
			</g>
			<g id="shape167-56" transform="translate(-2.6811,-8.58661)">
				<title>Sheet.167</title>
				<rect x="0" y="139.006" width="3" height="11.1732" class="st11"/>
			</g>
			<g id="shape164-58">
				<text x="18.39" y="114.59" class="st5">v<tspan dy="-0.284em" class="st6">1</tspan></text>			</g>
		</g>
	</g>
</svg>
