<?xml version="1.0" encoding="UTF-8" standalone="no"?>
<!DOCTYPE svg PUBLIC "-//W3C//DTD SVG 1.1//EN" "http://www.w3.org/Graphics/SVG/1.1/DTD/svg11.dtd">
<!-- Generated by Microsoft Visio, SVG Export intervals.svg Page-1 -->
<svg xmlns="http://www.w3.org/2000/svg" xmlns:xlink="http://www.w3.org/1999/xlink" xmlns:ev="http://www.w3.org/2001/xml-events"
		xmlns:v="http://schemas.microsoft.com/visio/2003/SVGExtensions/" width="5.71866in" height="1.65074in"
		viewBox="0 0 411.744 118.853" xml:space="preserve" color-interpolation-filters="sRGB" class="st11">
	<v:documentProperties v:langID="1033" v:metric="true" v:viewMarkup="false">
		<v:userDefs>
			<v:ud v:nameU="msvConvertTheme"/>
		</v:userDefs>
	</v:documentProperties>

	<style type="text/css">
	<![CDATA[
		.st1 {fill:none}
		.st2 {stroke:none;stroke-linecap:round;stroke-linejoin:round;stroke-width:1.5}
		.st3 {stroke:#000000;stroke-linecap:round;stroke-linejoin:round;stroke-width:1.5}
		.st4 {fill:none;stroke:none;stroke-linecap:round;stroke-linejoin:round;stroke-width:1.5;visibility:hidden}
		.st5 {fill:#000000;font-family:Arial;font-size:1.99999em}
		.st6 {baseline-shift:-32.4951%;font-size:0.649901em}
		.st7 {stroke:#0000aa;stroke-linecap:round;stroke-linejoin:round;stroke-width:1.5}
		.st8 {fill:none;stroke:none;stroke-linecap:round;stroke-linejoin:round;stroke-width:0.72}
		.st9 {fill:#0000aa;font-family:Arial;font-size:1.5em}
		.st10 {baseline-shift:-32.4951%;font-size:0.649902em}
		.st11 {fill:none;fill-rule:evenodd;font-size:12px;overflow:visible;stroke-linecap:square;stroke-miterlimit:3}
	]]>
	</style>

	<g v:mID="0" v:index="1" v:groupContext="foregroundPage">
		<title>Page-1</title>
		<v:pageProperties v:drawingScale="0.0393701" v:pageScale="0.0393701" v:drawingUnits="24" v:shadowOffsetX="8.50394"
				v:shadowOffsetY="-8.50394"/>
		<g id="group198-1" transform="translate(0.36,-4.78753)" v:mID="198" v:groupContext="group">
			<title>Sheet.198</title>
			<g id="group5-2" transform="translate(28.3465,-56.6929)" v:mID="5" v:groupContext="group">
				<v:userDefs>
					<v:ud v:nameU="visVersion" v:val="VT0(15):26"/>
				</v:userDefs>
				<title>2-D single</title>
				<desc>v1</desc>
				<g id="shape6-3" v:mID="6" v:groupContext="shape">
					<title>Sheet.6</title>
					<path d="M0 111.77 L77.95 111.77 L77.95 118.85 L85.04 104.68 L77.95 90.51 L77.95 97.59 L0 97.59 L0 111.77 Z"
							class="st1"/>
					<path d="M0 111.77 L77.95 111.77 L77.95 118.85 L85.04 104.68 L77.95 90.51 L77.95 97.59 L0 97.59" class="st2"/>
				</g>
				<g id="shape7-6" v:mID="7" v:groupContext="shape">
					<title>Sheet.7</title>
					<path d="M0 111.77 L77.95 111.77 L77.95 118.85 L85.04 104.68 L77.95 90.51 L77.95 97.59 L0 97.59 L0 111.77"
							class="st3"/>
				</g>
				<g id="shape8-9" v:mID="8" v:groupContext="shape" transform="translate(-3.27165,-8.58661)">
					<title>Sheet.8</title>
					<rect x="0" y="107.68" width="3" height="11.1732" class="st4"/>
				</g>
				<g id="shape5-11" v:mID="5" v:groupContext="groupContent">
					<v:textBlock v:margins="rect(4,4,4,4)" v:tabSpace="42.5197"/>
					<v:textRect cx="42.5197" cy="104.68" width="85.04" height="28.3465"/>
					<text x="32.18" y="83.08" class="st5" v:langID="1033"><v:paragraph v:horizAlign="1"/><v:tabList/>v<tspan
								dy="-0.287em" class="st6" v:baseFontSize="24">1</tspan><v:newlineChar/><v:newlineChar/></text>				</g>
			</g>
			<g id="group21-14" transform="translate(113.386,-56.6929)" v:mID="21" v:groupContext="group">
				<v:userDefs>
					<v:ud v:nameU="visVersion" v:val="VT0(15):26"/>
				</v:userDefs>
				<title>2-D single.21</title>
				<desc>v2</desc>
				<g id="shape22-15" v:mID="22" v:groupContext="shape">
					<title>Sheet.22</title>
					<path d="M0 111.77 L120.47 111.77 L120.47 118.85 L127.56 104.68 L120.47 90.51 L120.47 97.59 L0 97.59 L0 111.77
								 Z" class="st1"/>
					<path d="M0 111.77 L120.47 111.77 L120.47 118.85 L127.56 104.68 L120.47 90.51 L120.47 97.59 L0 97.59"
							class="st2"/>
				</g>
				<g id="shape23-18" v:mID="23" v:groupContext="shape">
					<title>Sheet.23</title>
					<path d="M0 111.77 L120.47 111.77 L120.47 118.85 L127.56 104.68 L120.47 90.51 L120.47 97.59 L0 97.59 L0 111.77"
							class="st3"/>
				</g>
				<g id="shape24-21" v:mID="24" v:groupContext="shape" transform="translate(-4.15748,-8.58661)">
					<title>Sheet.24</title>
					<rect x="0" y="107.68" width="3" height="11.1732" class="st4"/>
				</g>
				<g id="shape21-23" v:mID="21" v:groupContext="groupContent">
					<v:textBlock v:margins="rect(4,4,4,4)" v:tabSpace="42.5197"/>
					<v:textRect cx="63.7795" cy="104.68" width="127.56" height="28.3465"/>
					<text x="53.44" y="83.08" class="st5" v:langID="1033"><v:paragraph v:horizAlign="1"/><v:tabList/>v<tspan
								dy="-0.287em" class="st6" v:baseFontSize="24">2</tspan><v:newlineChar/><v:newlineChar/></text>				</g>
			</g>
			<g id="shape30-26" v:mID="30" v:groupContext="shape" transform="translate(232.239,47.9872) rotate(90)">
				<title>Sheet.30</title>
				<path d="M0 118.85 L28.35 118.85" class="st7"/>
			</g>
			<g id="shape31-29" v:mID="31" v:groupContext="shape" transform="translate(359.798,47.9872) rotate(90)">
				<title>Sheet.31</title>
				<path d="M0 118.85 L28.35 118.85" class="st7"/>
			</g>
			<g id="shape35-32" v:mID="35" v:groupContext="shape" transform="translate(1.19904E-14,-14.1732)">
				<title>Sheet.35</title>
				<desc>bg1</desc>
				<v:textBlock v:margins="rect(4,4,4,4)" v:tabSpace="42.5197"/>
				<v:textRect cx="28.3465" cy="104.68" width="56.7" height="28.3465"/>
				<rect x="0" y="90.5069" width="56.6929" height="28.3465" class="st8"/>
				<text x="15.08" y="110.08" class="st9" v:langID="1033"><v:paragraph v:horizAlign="1"/><v:tabList/>bg<tspan
							dy="-0.287em" class="st10" v:baseFontSize="18">1</tspan></text>			</g>
			<g id="shape37-36" v:mID="37" v:groupContext="shape" transform="translate(85.0394,-21.2598)">
				<title>Sheet.37</title>
				<desc>nd1</desc>
				<v:textBlock v:margins="rect(4,4,4,4)" v:tabSpace="42.5197"/>
				<v:textRect cx="28.3465" cy="111.767" width="56.7" height="14.1732"/>
				<rect x="0" y="104.68" width="56.6929" height="14.1732" class="st8"/>
				<text x="15.08" y="117.17" class="st9" v:langID="1033"><v:paragraph v:horizAlign="1"/><v:tabList/>nd<tspan
							dy="-0.287em" class="st10" v:baseFontSize="18">1</tspan></text>			</g>
			<g id="shape38-40" v:mID="38" v:groupContext="shape" transform="translate(85.0394,7.10543E-14)">
				<title>Sheet.38</title>
				<desc>bg2</desc>
				<v:textBlock v:margins="rect(4,4,4,4)" v:tabSpace="42.5197"/>
				<v:textRect cx="28.3465" cy="111.767" width="56.7" height="14.1732"/>
				<rect x="0" y="104.68" width="56.6929" height="14.1732" class="st8"/>
				<text x="15.08" y="117.17" class="st9" v:langID="1033"><v:paragraph v:horizAlign="1"/><v:tabList/>bg<tspan
							dy="-0.287em" class="st10" v:baseFontSize="18">2</tspan></text>			</g>
			<g id="group40-44" transform="translate(297.638,-56.6929)" v:mID="40" v:groupContext="group">
				<v:userDefs>
					<v:ud v:nameU="visVersion" v:val="VT0(15):26"/>
				</v:userDefs>
				<title>2-D single.40</title>
				<desc>v3</desc>
				<g id="shape41-45" v:mID="41" v:groupContext="shape">
					<title>Sheet.41</title>
					<path d="M0 111.77 L77.95 111.77 L77.95 118.85 L85.04 104.68 L77.95 90.51 L77.95 97.59 L0 97.59 L0 111.77 Z"
							class="st1"/>
					<path d="M0 111.77 L77.95 111.77 L77.95 118.85 L85.04 104.68 L77.95 90.51 L77.95 97.59 L0 97.59" class="st2"/>
				</g>
				<g id="shape42-48" v:mID="42" v:groupContext="shape">
					<title>Sheet.42</title>
					<path d="M0 111.77 L77.95 111.77 L77.95 118.85 L85.04 104.68 L77.95 90.51 L77.95 97.59 L0 97.59 L0 111.77"
							class="st3"/>
				</g>
				<g id="shape43-51" v:mID="43" v:groupContext="shape" transform="translate(-3.27165,-8.58661)">
					<title>Sheet.43</title>
					<rect x="0" y="107.68" width="3" height="11.1732" class="st4"/>
				</g>
				<g id="shape40-53" v:mID="40" v:groupContext="groupContent">
					<v:textBlock v:margins="rect(4,4,4,4)" v:tabSpace="42.5197"/>
					<v:textRect cx="42.5197" cy="104.68" width="85.04" height="28.3465"/>
					<text x="32.18" y="83.08" class="st5" v:langID="1033"><v:paragraph v:horizAlign="1"/><v:tabList/>v<tspan
								dy="-0.287em" class="st6" v:baseFontSize="24">3</tspan><v:newlineChar/><v:newlineChar/></text>				</g>
			</g>
			<g id="shape44-56" v:mID="44" v:groupContext="shape" transform="translate(416.491,47.9872) rotate(90)">
				<title>Sheet.44</title>
				<path d="M0 118.85 L28.35 118.85" class="st7"/>
			</g>
			<g id="shape45-59" v:mID="45" v:groupContext="shape" transform="translate(501.53,47.9872) rotate(90)">
				<title>Sheet.45</title>
				<path d="M0 118.85 L28.35 118.85" class="st7"/>
			</g>
			<g id="shape46-62" v:mID="46" v:groupContext="shape" transform="translate(269.291,-21.2598)">
				<title>Sheet.46</title>
				<desc>bg3</desc>
				<v:textBlock v:margins="rect(4,4,4,4)" v:tabSpace="42.5197"/>
				<v:textRect cx="28.3465" cy="111.767" width="56.7" height="14.1732"/>
				<rect x="0" y="104.68" width="56.6929" height="14.1732" class="st8"/>
				<text x="15.08" y="117.17" class="st9" v:langID="1033"><v:paragraph v:horizAlign="1"/><v:tabList/>bg<tspan
							dy="-0.287em" class="st10" v:baseFontSize="18">3</tspan></text>			</g>
			<g id="shape47-66" v:mID="47" v:groupContext="shape" transform="translate(354.331,-21.2598)">
				<title>Sheet.47</title>
				<desc>nd3</desc>
				<v:textBlock v:margins="rect(4,4,4,4)" v:tabSpace="42.5197"/>
				<v:textRect cx="28.3465" cy="111.767" width="56.7" height="14.1732"/>
				<rect x="0" y="104.68" width="56.6929" height="14.1732" class="st8"/>
				<text x="15.08" y="117.17" class="st9" v:langID="1033"><v:paragraph v:horizAlign="1"/><v:tabList/>nd<tspan
							dy="-0.287em" class="st10" v:baseFontSize="18">3</tspan></text>			</g>
			<g id="shape168-70" v:mID="168" v:groupContext="shape" transform="translate(147.2,47.9872) rotate(90)">
				<title>Sheet.168</title>
				<path d="M0 118.85 L28.35 118.85" class="st7"/>
			</g>
			<g id="shape169-73" v:mID="169" v:groupContext="shape" transform="translate(212.598,-21.2598)">
				<title>Sheet.169</title>
				<desc>nd2</desc>
				<v:textBlock v:margins="rect(4,4,4,4)" v:tabSpace="42.5197"/>
				<v:textRect cx="28.3465" cy="111.767" width="56.7" height="14.1732"/>
				<rect x="0" y="104.68" width="56.6929" height="14.1732" class="st8"/>
				<text x="15.08" y="117.17" class="st9" v:langID="1033"><v:paragraph v:horizAlign="1"/><v:tabList/>nd<tspan
							dy="-0.287em" class="st10" v:baseFontSize="18">2</tspan></text>			</g>
		</g>
	</g>
</svg>
