<?xml version="1.0" encoding="UTF-8" standalone="no"?>
<!DOCTYPE svg PUBLIC "-//W3C//DTD SVG 1.1//EN" "http://www.w3.org/Graphics/SVG/1.1/DTD/svg11.dtd">
<!-- Generated by Microsoft Visio, SVG Export intervals-2.svg Page-1 -->
<svg xmlns="http://www.w3.org/2000/svg" xmlns:xlink="http://www.w3.org/1999/xlink" xmlns:ev="http://www.w3.org/2001/xml-events"
		xmlns:v="http://schemas.microsoft.com/visio/2003/SVGExtensions/" width="5.05504in" height="2.08582in"
		viewBox="0 0 363.963 150.179" xml:space="preserve" color-interpolation-filters="sRGB" class="st12">
	<v:documentProperties v:langID="1033" v:metric="true" v:viewMarkup="false">
		<v:userDefs>
			<v:ud v:nameU="msvConvertTheme"/>
		</v:userDefs>
	</v:documentProperties>

	<style type="text/css">
	<![CDATA[
		.st1 {fill:none}
		.st2 {stroke:none;stroke-linecap:round;stroke-linejoin:round;stroke-width:1.5}
		.st3 {stroke:#000000;stroke-linecap:round;stroke-linejoin:round;stroke-width:1.5}
		.st4 {fill:none;stroke:none;stroke-linecap:round;stroke-linejoin:round;stroke-width:1.5;visibility:hidden}
		.st5 {fill:#000000;font-family:Arial;font-size:1.99999em}
		.st6 {baseline-shift:-32.4951%;font-size:0.649901em}
		.st7 {fill:#0000aa}
		.st8 {stroke:#0000aa;stroke-linecap:round;stroke-linejoin:round;stroke-width:1.5}
		.st9 {fill:#0000aa;stroke:#0000aa;stroke-linecap:round;stroke-linejoin:round;stroke-width:1.5;visibility:hidden}
		.st10 {fill:#ffffff}
		.st11 {fill:#ffffff;stroke:none;stroke-linecap:round;stroke-linejoin:round;stroke-width:1.5;visibility:hidden}
		.st12 {fill:none;fill-rule:evenodd;font-size:12px;overflow:visible;stroke-linecap:square;stroke-miterlimit:3}
	]]>
	</style>

	<g v:mID="0" v:index="1" v:groupContext="foregroundPage">
		<title>Page-1</title>
		<v:pageProperties v:drawingScale="0.0393701" v:pageScale="0.0393701" v:drawingUnits="24" v:shadowOffsetX="8.50394"
				v:shadowOffsetY="-8.50394"/>
		<g id="group148-1" transform="translate(8.88189,-78.6329)" v:mID="148" v:groupContext="group">
			<v:userDefs>
				<v:ud v:nameU="visVersion" v:val="VT0(15):26"/>
			</v:userDefs>
			<title>2-D single.148</title>
			<desc>v1</desc>
			<g id="shape149-2" v:mID="149" v:groupContext="shape">
				<title>Sheet.149</title>
				<path d="M0 143.09 L347.24 143.09 L347.24 150.18 L354.33 136.01 L347.24 121.83 L347.24 128.92 L0 128.92 L0 143.09
							 Z" class="st1"/>
				<path d="M0 143.09 L347.24 143.09 L347.24 150.18 L354.33 136.01 L347.24 121.83 L347.24 128.92 L0 128.92"
						class="st2"/>
			</g>
			<g id="shape150-5" v:mID="150" v:groupContext="shape">
				<title>Sheet.150</title>
				<path d="M0 143.09 L347.24 143.09 L347.24 150.18 L354.33 136.01 L347.24 121.83 L347.24 128.92 L0 128.92 L0 143.09"
						class="st3"/>
			</g>
			<g id="shape151-8" v:mID="151" v:groupContext="shape" transform="translate(-8.88189,-8.58661)">
				<title>Sheet.151</title>
				<rect x="0" y="139.006" width="3" height="11.1732" class="st4"/>
			</g>
			<g id="shape148-10" v:mID="148" v:groupContext="groupContent">
				<v:textBlock v:margins="rect(4,4,4,4)" v:tabSpace="42.5197"/>
				<v:textRect cx="177.165" cy="136.006" width="354.34" height="28.3465"/>
				<text x="166.83" y="114.41" class="st5" v:langID="1033"><v:paragraph v:horizAlign="1"/><v:tabList/>v<tspan
							dy="-0.287em" class="st6" v:baseFontSize="24">1</tspan><v:newlineChar/><v:newlineChar/></text>			</g>
		</g>
		<g id="group152-13" transform="translate(65.5748,-29.0266)" v:mID="152" v:groupContext="group">
			<v:userDefs>
				<v:ud v:nameU="visVersion" v:val="VT0(15):26"/>
			</v:userDefs>
			<title>2-D single.152</title>
			<desc>vn</desc>
			<g id="shape153-14" v:mID="153" v:groupContext="shape">
				<title>Sheet.153</title>
				<path d="M0 143.09 L233.86 143.09 L233.86 150.18 L240.94 136.01 L233.86 121.83 L233.86 128.92 L0 128.92 L0 143.09
							 Z" class="st7"/>
				<path d="M0 143.09 L233.86 143.09 L233.86 150.18 L240.94 136.01 L233.86 121.83 L233.86 128.92 L0 128.92"
						class="st2"/>
			</g>
			<g id="shape154-17" v:mID="154" v:groupContext="shape">
				<title>Sheet.154</title>
				<path d="M0 143.09 L233.86 143.09 L233.86 150.18 L240.94 136.01 L233.86 121.83 L233.86 128.92 L0 128.92 L0 143.09"
						class="st8"/>
			</g>
			<g id="shape155-20" v:mID="155" v:groupContext="shape" transform="translate(-6.51969,-8.58661)">
				<title>Sheet.155</title>
				<rect x="0" y="139.006" width="3" height="11.1732" class="st9"/>
			</g>
			<g id="shape152-22" v:mID="152" v:groupContext="groupContent">
				<v:textBlock v:margins="rect(4,4,4,4)" v:tabSpace="42.5197"/>
				<v:textRect cx="120.472" cy="136.006" width="240.95" height="28.3465"/>
				<text x="110.14" y="114.41" class="st5" v:langID="1033"><v:paragraph v:horizAlign="1"/><v:tabList/>v<tspan
							dy="-0.287em" class="st6" v:baseFontSize="24">n</tspan><v:newlineChar/><v:newlineChar/></text>			</g>
		</g>
		<g id="group156-25" transform="translate(8.88189,-29.0266)" v:mID="156" v:groupContext="group">
			<v:userDefs>
				<v:ud v:nameU="visVersion" v:val="VT0(15):26"/>
			</v:userDefs>
			<title>2-D single.156</title>
			<desc>v1</desc>
			<g id="shape157-26" v:mID="157" v:groupContext="shape">
				<title>Sheet.157</title>
				<path d="M0 143.09 L49.61 143.09 L49.61 150.18 L56.69 136.01 L49.61 121.83 L49.61 128.92 L0 128.92 L0 143.09 Z"
						class="st1"/>
				<path d="M0 143.09 L49.61 143.09 L49.61 150.18 L56.69 136.01 L49.61 121.83 L49.61 128.92 L0 128.92" class="st2"/>
			</g>
			<g id="shape158-29" v:mID="158" v:groupContext="shape">
				<title>Sheet.158</title>
				<path d="M0 143.09 L49.61 143.09 L49.61 150.18 L56.69 136.01 L49.61 121.83 L49.61 128.92 L0 128.92 L0 143.09"
						class="st3"/>
			</g>
			<g id="shape159-32" v:mID="159" v:groupContext="shape" transform="translate(-2.6811,-8.58661)">
				<title>Sheet.159</title>
				<rect x="0" y="139.006" width="3" height="11.1732" class="st4"/>
			</g>
			<g id="shape156-34" v:mID="156" v:groupContext="groupContent">
				<v:textBlock v:margins="rect(4,4,4,4)" v:tabSpace="42.5197"/>
				<v:textRect cx="28.3465" cy="136.006" width="56.7" height="28.3465"/>
				<text x="18.01" y="114.41" class="st5" v:langID="1033"><v:paragraph v:horizAlign="1"/><v:tabList/>v<tspan
							dy="-0.287em" class="st6" v:baseFontSize="24">1</tspan><v:newlineChar/><v:newlineChar/></text>			</g>
		</g>
		<g id="group160-37" transform="translate(306.52,-29.0266)" v:mID="160" v:groupContext="group">
			<v:userDefs>
				<v:ud v:nameU="visVersion" v:val="VT0(15):26"/>
			</v:userDefs>
			<title>2-D single.160</title>
			<desc>v1</desc>
			<g id="shape161-38" v:mID="161" v:groupContext="shape">
				<title>Sheet.161</title>
				<path d="M0 143.09 L49.61 143.09 L49.61 150.18 L56.69 136.01 L49.61 121.83 L49.61 128.92 L0 128.92 L0 143.09 Z"
						class="st1"/>
				<path d="M0 143.09 L49.61 143.09 L49.61 150.18 L56.69 136.01 L49.61 121.83 L49.61 128.92 L0 128.92" class="st2"/>
			</g>
			<g id="shape162-41" v:mID="162" v:groupContext="shape">
				<title>Sheet.162</title>
				<path d="M0 143.09 L49.61 143.09 L49.61 150.18 L56.69 136.01 L49.61 121.83 L49.61 128.92 L0 128.92 L0 143.09"
						class="st3"/>
			</g>
			<g id="shape163-44" v:mID="163" v:groupContext="shape" transform="translate(-2.6811,-8.58661)">
				<title>Sheet.163</title>
				<rect x="0" y="139.006" width="3" height="11.1732" class="st4"/>
			</g>
			<g id="shape160-46" v:mID="160" v:groupContext="groupContent">
				<v:textBlock v:margins="rect(4,4,4,4)" v:tabSpace="42.5197"/>
				<v:textRect cx="28.3465" cy="136.006" width="56.7" height="28.3465"/>
				<text x="18.01" y="114.41" class="st5" v:langID="1033"><v:paragraph v:horizAlign="1"/><v:tabList/>v<tspan
							dy="-0.287em" class="st6" v:baseFontSize="24">1</tspan><v:newlineChar/><v:newlineChar/></text>			</g>
		</g>
		<g id="group164-49" transform="translate(306.52,-92.8061)" v:mID="164" v:groupContext="group">
			<v:userDefs>
				<v:ud v:nameU="visVersion" v:val="VT0(15):26"/>
			</v:userDefs>
			<title>2-D single.164</title>
			<desc>v1</desc>
			<g id="shape165-50" v:mID="165" v:groupContext="shape">
				<title>Sheet.165</title>
				<path d="M0 143.09 L49.61 143.09 L49.61 150.18 L56.69 136.01 L49.61 121.83 L49.61 128.92 L0 128.92 L0 143.09 Z"
						class="st10"/>
				<path d="M0 143.09 L49.61 143.09 L49.61 150.18 L56.69 136.01 L49.61 121.83 L49.61 128.92 L0 128.92" class="st2"/>
			</g>
			<g id="shape166-53" v:mID="166" v:groupContext="shape">
				<title>Sheet.166</title>
				<path d="M0 143.09 L49.61 143.09 L49.61 150.18 L56.69 136.01 L49.61 121.83 L49.61 128.92 L0 128.92 L0 143.09"
						class="st3"/>
			</g>
			<g id="shape167-56" v:mID="167" v:groupContext="shape" transform="translate(-2.6811,-8.58661)">
				<title>Sheet.167</title>
				<rect x="0" y="139.006" width="3" height="11.1732" class="st11"/>
			</g>
			<g id="shape164-58" v:mID="164" v:groupContext="groupContent">
				<v:textBlock v:margins="rect(4,4,4,4)" v:tabSpace="42.5197"/>
				<v:textRect cx="28.3465" cy="136.006" width="56.7" height="28.3465"/>
				<text x="18.01" y="114.41" class="st5" v:langID="1033"><v:paragraph v:horizAlign="1"/><v:tabList/>v<tspan
							dy="-0.287em" class="st6" v:baseFontSize="24">1</tspan><v:newlineChar/><v:newlineChar/></text>			</g>
		</g>
	</g>
</svg>
